<?xml version="1.0" standalone="no"?>
<!DOCTYPE svg PUBLIC "-//W3C//DTD SVG 20010904//EN"
 "http://www.w3.org/TR/2001/REC-SVG-20010904/DTD/svg10.dtd">
<svg version="1.0" xmlns="http://www.w3.org/2000/svg"
 width="260.000000pt" height="260.000000pt" viewBox="0 0 260.000000 260.000000"
 preserveAspectRatio="xMidYMid meet">
<metadata>
Created by potrace 1.11, written by Peter Selinger 2001-2013
</metadata>
<g transform="translate(0.000000,260.000000) scale(0.100000,-0.100000)"
fill="#000000" stroke="none">
<path d="M0 1300 l0 -1300 1300 0 1300 0 0 1300 0 1300 -1300 0 -1300 0 0
-1300z m1524 841 c43 -34 85 -40 291 -44 121 -2 133 0 168 22 47 29 100 25
157 -13 60 -39 66 -71 43 -234 -24 -184 -25 -614 0 -814 34 -271 28 -283 -144
-303 -48 -5 -57 -3 -75 16 -17 19 -19 41 -24 257 l-5 237 -30 6 c-50 11 -395
10 -415 -1 -10 -5 -38 -46 -62 -91 -106 -200 -260 -334 -430 -374 -161 -38
-301 1 -353 99 -29 53 -17 66 60 66 98 0 210 26 304 72 66 32 101 57 160 117
87 86 131 163 163 278 20 71 22 98 19 303 -1 124 -3 261 -4 305 l-2 79 34 23
c48 33 99 30 145 -6z m-956 -45 c39 -21 72 -27 193 -37 148 -11 168 -10 277
23 39 11 47 10 80 -7 20 -11 47 -36 60 -55 26 -38 26 -33 3 -260 -6 -58 -15
-188 -20 -290 -5 -109 -13 -196 -21 -211 -13 -29 -67 -59 -104 -59 -12 0 -49
10 -82 21 -42 16 -84 22 -144 23 -117 1 -170 -10 -224 -46 -39 -26 -54 -30
-88 -25 -80 11 -81 15 -90 289 -4 134 -13 297 -20 363 -15 146 -14 195 6 234
34 65 94 78 174 37z m1852 -1681 l0 -65 -1105 0 -1105 0 0 65 0 65 1105 0
1105 0 0 -65z"/>
<path d="M1615 1943 c-49 -8 -55 -19 -55 -98 0 -55 4 -76 17 -86 12 -11 58
-14 192 -14 l176 0 3 86 c4 115 6 114 -167 115 -75 1 -149 0 -166 -3z"/>
<path d="M1564 1590 c-17 -7 -23 -22 -33 -86 -6 -42 -9 -80 -5 -83 3 -3 92 -7
199 -9 234 -4 227 -7 223 107 l-3 76 -180 2 c-99 1 -190 -2 -201 -7z"/>
<path d="M658 1934 c-42 -8 -49 -25 -46 -116 l3 -83 180 0 180 0 3 86 c2 69 0
89 -13 99 -16 14 -249 24 -307 14z"/>
<path d="M623 1573 c-16 -6 -18 -145 -3 -174 10 -17 22 -19 118 -18 132 1 211
11 223 30 5 8 9 49 9 92 l0 77 -167 -1 c-93 0 -174 -3 -180 -6z"/>
</g>
</svg>
