<?xml version="1.0" encoding="UTF-8"?>
<svg version="1.1" viewBox="0 0 2048 2048" width="600" height="600" xmlns="http://www.w3.org/2000/svg">
<path transform="translate(982,68)" d="m0 0h31l35 3 30 5 25 6 26 8 25 10 25 12 22 13 15 10 12 9 10 8 10 9 14 14 9 11 12 16 4 4 21-2h55l29 4 26 6 20 6 22 9 20 10 18 11 14 10 16 13 13 12 7 7 9 11 8 10 13 20 14 27 9 23 7 26 4 26 1 15v16l-2 25-4 23-7 26-11 27-9 17-11 16-10 13-12 14-7 7-11 9-10 8-15 10-23 12-20 7-20 5-19 3h-14l5 70 6 74 5 68 2 24 1 21v30l23 7 11 6 12 9 10 10 9 13 8 16 5 15 3 18v21l-4 23-6 17-8 16-9 13-10 12-8 7-14 10-18 8-14 4-13 2-13 1-15 29-8 12-10 13-12 14-14 14-14 11-15 11-22 13-16 8h-2l-2 14-5 14-7 12 1 4 11 14 12 17 13 21 12 22 9 17 14 31 13 33 12 36 9 35 6 30-1 1h-19l-2-6-8-33-8-28-11-33-11-28-11-24-15-30-12-20-13-20-11-15-5-6-5 2-10 8-17 10-24 11-21 7-20 5h-3l10 14 14 27 9 24 10 35 1 4v11l-7 2h-13l1 7 1 26v49h-19l-1-60-1-8-14-1-15-2-3-1v2l4 2 6 7 3 6 1 11-2 8-6 9-9 6-3 1h-15l-10-6-7-10-1-3v-15l5-10 8-7 4-2-17-6-14-8-12-9-9-8-11-14-7-11-25 1-14-1-8 14-8 11-13 13-14 10-12 6-6 2 9 6 7 8 3 9v8l-3 9-4 6-10 7-3 1h-13l-7-3-8-7-5-8-1-4v-11l3-8 4-7-14 1-10 1-1 1-3 64-5 1-14-1v-25l2-41 1-12 1-3h-11l-14-2-4-2 1-10 10-38 7-21 12-25 9-14 3-6-10-2-26-10-23-12-16-11-8-7-4-1-2 4-10 13-16 24-12 20-9 16-11 23-10 23-11 29-9 28-10 37-6 24-1 2h-20l1-9 9-40 9-31 12-34 13-31 12-26 14-26 13-21 14-20 10-13 6-7-1-4-6-10-5-16-2-6-29-14-20-12-16-11-10-8-14-12-11-11-9-11-10-13-11-18-8-15-4-9-26-3-16-5-16-8-11-8-13-12-11-14-9-16-6-14-4-14-2-13v-32l3-15 7-19 7-12 10-13 12-11 11-7 10-5 14-4 8-1v-39l6-83 12-146 2-22-15-1-20-3-24-6-19-7-16-8-16-9-12-9-11-9-18-18-12-16-12-19-10-19-9-23-7-25-4-22-2-23v-16l2-22 4-25 6-22 10-25 10-20 11-18 12-16 11-13 23-23 14-11 18-13 15-9 25-13 25-10 25-7 26-5 20-2h49l21 2 5 1 9-11 10-12h2l2-4h2v-2l8-7 12-11 17-13 16-11 25-15 23-12 25-11 27-9 28-7 28-5 17-2z" fill="#54271F"/>
<path transform="translate(980,91)" d="m0 0h38l29 3 28 5 31 8 24 8 24 10 16 8 17 9 21 14 12 9 13 11 10 9 20 20 13 17 10 15 14 24 7 15 3 7 2 1-4-22-9-27-1-7 20-2h33l22 2 27 5 25 7 24 9 24 12 20 13 13 10 11 10 2 1v2l4 2 15 16 13 17 11 18 8 15 9 23 6 21 3 15 2 20v30l-3 26-5 23-7 21-9 20-10 17-12 17-12 14-11 11-11 9-14 10-25 13-24 8-25 5-15 1-2-6-6-66v-8l12-5 18-8 11-6 13-11 14-14 9-14v-2l-11 10-16 11-19 11-19 9-19 6-14 3-19 2h-19l-29-3-21-5-20-7-26-12-18-10-17-11-12-9-14-12-17-17-10-13 2-4 11-10 8-7 10-10 13-17 9-16 8-16-16 16-9 11-22 22-11 9-16 12-23 13-25 12-23 9-29 9-26 6-26 4-11 1h-48l-31-3-31-6-25-7-20-8-25-12-14-8-18-12-14-12-18-18-11-14-8-11-5-5 4 10 10 19 12 16 12 13 9 10 8 7 13 11 4 3-2 4-7 7-7 8-10 9-16 13-15 10-18 10-17 8-21 7-20 4-12 1h-22l-19-2-24-6-19-7-17-9-17-12-11-10-5-4 2 5 11 16 11 12 14 11 21 11 30 10-1 21-3 43-1 5-19-1-22-4-20-6-16-7-15-8-16-11-14-12-11-11-11-14-10-15-12-23-8-20-6-23-4-26-1-12v-31l4-26 5-19 7-20 14-29 12-18 13-16 12-13 12-12 11-9 17-13 15-9 23-12 25-10 25-7 20-4 16-2 19-1h18l23 1 5 1-2 6-10 22-6 20-3 15 4-1 1-5 8-16 6-10 14-20 13-16 9-10 7-8 14-14 11-9 16-13 20-14 22-13 19-10 26-11 33-11 29-7 25-4z" fill="#FCFCFC"/>
<path transform="translate(1097,808)" d="m0 0 26 3 60 10 37 8 45 12 35 11 21 7 2 5 5 20 16 53 18 58 10 36 8 34 4 21 2 16v33l-3 21-6 24-8 20-8 15-10 15-11 14-11 13-14 14-11 9-15 11-19 12-29 15-19 8-33 11-40 10-43 8-29 4-31 3-14 1h-67l-28-2-40-5-39-7-39-9-30-9-27-10-20-9-23-13-14-8-17-12-11-9-12-11-10-10-9-11-10-13-10-17-7-15-5-16-5-21-3-20v-35l4-26 6-26 14-50 13-42 15-47 7-23 5-15 2-12 8-4 36-12 34-10 44-11 26-5h7l-2 5-11 14-6 10 1 7 5 5 7 4 12 3h35l30-5 14-3-2 4-13 11-11 9-7 7-3 6 1 6 6 4 11 3 6 1h32l25-4 25-7 20-8 23-12 14-9 12-9 14-12 14-14 10-13z" fill="#F6D9BD"/>
<path transform="translate(270,1223)" d="m0 0h275l11 4 8 6 7 8 5 10 1 6v254l-4 12-8 11-8 6-10 4-7 1h-280l-12-5-10-9-4-5-4-9-1-4v-258l4-11 6-8 8-7 9-4z" fill="#55C6BC"/>
<path transform="translate(1228,1702)" d="m0 0h18l19 3 16 6 12 7 10 9 4 6 2 7v8l-4 12-8 15-7 7-9 4h-12l-17-7-9-2h-10l-11 4-8 7-6 12-1 5v14l3 10 7 10 9 5 14 2 11-2 12-5 8-4h11l6 3 8 8 3 5-4-26v-18l4-27 5-15 8-16 8-11 9-10 12-10 17-9 16-5 13-2h17l18 3 16 6 17 10 12 11 7 8 8 13 6 12 6 18 2 11 7-26 9-19 8-11 3-4h2l2-4 13-11 14-8 16-6 17-3h18l17 3 13 5 15 8 13 10 9 9 9 14 9 21 5 21 1 9v20l-2 16-6 21-8 16-7 11-15 15-13 8-13 6-15 4-13 2h-14l-19-3-15-5-15-8-10-8-10-10-10-15-8-16-5-17-2-9-6 25-9 19-8 11-9 10-8 7-15 9-16 6-14 3-7 1h-17l-14-2-16-5-16-8-11-8-15-15-9-14 2 9v8l-4 8-10 10-17 9-20 6-13 2h-19l-20-4-19-8-11-7-12-11-10-11-9-16-5-12-4-13-2-12v-29l3-17 5-15 8-16 8-11 10-11 13-10 15-8 16-5z" fill="#FCFBFB"/>
<path transform="translate(961,668)" d="m0 0h70l29 1 49 4 46 6 41 7 31 7 38 10 36 11 19 7 28 11 29 14 16 10 1 4 7 95v15l-13-5-21-9-46-18-36-12-33-10-36-9-40-8-45-7-32-4-43-3-30-1h-42l-45 1-44 3-35 4-49 8-34 7-43 11-30 9-38 13-33 13-34 15-5 2-1-3 7-95 2-14 9-7 29-16 21-9 27-10 33-11 44-12 37-8 35-6 39-5 49-4z" fill="#FCFCFC"/>
<path transform="translate(544,1705)" d="m0 0h33l26 1 20 3 20 6 16 8 11 7 11 9 11 14 8 16 5 15 4 17 1-21 1-58 6-10 7-5 4-1h114l6 3 7 8 2 6v33l-4 8-6 5-6 2-58 1-1 10 47 1 6 3 4 5 2 7v31l-3 8-6 5-3 1-47 1v11h57l10 3 5 4 3 6 1 4v30l-4 10-6 5-2 1-16 1-103-1-7-3-5-5-3-6-2-14-1-62-5 21-5 13-10 16-9 11-14 11-15 8-18 6-27 4h-68l-8-3-5-4-4-8-2-11v-163l2-10 6-8 6-4z" fill="#FCFBFA"/>
<path transform="translate(246,1702)" d="m0 0h15l20 3 13 5 14 7 9 7 6 9 2 6v10l-6 16-6 11-7 7-9 4h-13l-17-8-11-2-11 1-9 4-6 5-6 12-1 4v18l5 12 5 6 9 5 10 2 13-1 14-6 8-4h12l5 3 8 8 4 5-3-13-2-16v-14l2-19 4-17 5-12 8-15 11-13 7-7 11-8 15-8 16-5 14-2h16l18 3 13 5 13 7 12 9 12 12 9 14 6 12 6 20 2 17v20l-3 21-5 17-8 16-9 13-10 10-10 7-12 7-17 6-18 3h-15l-19-3-15-5-13-7-13-10-9-9-9-13-3-5 1 5v12l-4 8-9 9-14 8-16 6-16 3-9 1h-9l-16-2-15-4-14-6-12-8-10-9-9-10-9-14-7-17-4-15-2-14v-23l4-21 6-16 8-15 7-9 9-10 15-11 16-8 16-5z" fill="#FCFBFB"/>
<path transform="translate(1625,1124)" d="m0 0h27l12 3 14 7 10 8 8 10 7 14 4 14 1 7v22l-4 20-6 18-8 17-8 12-11 14-15 15-14 10-15 8-18 6-17 3h-32l-9 7-9 10-9 13-13 20-11 17-12 18-14 20-13 18-10 13-11 13-9 10-10 9-14 8-8 2h-15l-11-4-9-7-7-11-2-6v-14l4-13 6-11 10-13 28-30 19-19 8-7 9-9 8-7 9-9 8-7 22-22 9-11 7-9 3-5v-9l-4-23v-17l3-19 5-17 10-21 7-10 11-13 11-11 12-9 16-10 16-7 17-5z" fill="#D44136"/>
<path transform="translate(1141,491)" d="m0 0 4 1 10 14 14 15 1 5-1 2-3 53-4 80-12-1-37-5-50-4-25-1h-85l-39 2-45 4-44 6-19 3-1-1-4-115-2-31v-8l23 10 26 10 24 7 29 6 27 3h47l27-3 29-5 26-7 25-9 22-10 23-13z" fill="#FCFCFC"/>
<path transform="translate(981,1702)" d="m0 0 17 1 12 3 12 5 9 7 7 7 6 10 4 13 1 6v10l-3 13-6 12-8 10-8 8-1 3 4 4v2h2l4 5 3-1 8-10 5-4 4-1h10l6 3 11 9 8 9 4 7 1 7-2 7-8 11-5 6 2 4 8 11 2 4v10l-4 8-11 12-11 7-5 2h-9l-7-4-10-9-3-2-12 6-15 5-17 3h-24l-15-3-15-6-11-7-6-5-7-10-6-13-3-14v-15l3-14 5-12 9-12 13-11-2-6-6-14-2-10v-16l3-13 6-12 9-10 10-7 11-5 12-3z" fill="#FCFBFA"/>
<path transform="translate(1829,1703)" d="m0 0h8l10 3 10 6 7 6 7 11 2 6v8l-5 9-13 16-13 17-11 13-7 9 2 5 7 9 13 16 11 14 13 16 9 13 1 2v10l-6 10-9 9-10 6-9 3h-15l-8-5-9-9-8-10-12-14-8-10-11-13-2-3-1 45-4 10-6 5-8 2h-37l-7-3-5-4-4-10-1-32v-144l2-9 7-8 5-2 8-1h26l12 2 7 6 4 10v40l5-5 14-17 12-14 9-11 9-9 5-3z" fill="#FCFBFA"/>
<path transform="translate(700,379)" d="m0 0 7 6 15 15 8 7 14 12 27 18 24 13 17 8 29 11 25 7 25 5 25 3 19 1h17l23-1 27-3 22-4 32-8 33-11 30-13 23-12 22-13 20-12 19-12 16-12 7-5h1l-1 7-7 15-3 1-7 8-8 8-9 11-22 22-11 9-16 12-23 13-25 12-23 9-29 9-26 6-26 4-11 1h-48l-31-3-31-6-25-7-20-8-25-12-14-8-18-12-14-12-18-18-11-14-8-11-5-5 4 10 10 19 12 16 12 13 9 10 8 7 13 11 4 3-2 4-7 7-7 8-10 9-16 13-15 10-18 10-17 8-21 7-20 4-12 1h-22l-19-2-24-6-19-7-17-9-17-12-11-10-5-4 2 5 11 16 8 9 1 4-2 1-1 2-8-6-11-16-3-8-2-11v-4l6 2 28 13 21 6 15 2 14 1h31l18-3 21-7 25-12 21-14 14-12 26-26v-4l-3-1-15-20-8-13-7-15-4-17-3-16z" fill="#C9D6E0"/>
<path transform="translate(1590,1711)" d="m0 0h11l15 2 16 5 16 9 12 11 9 10 9 16 6 17 3 18v28l-4 20-6 15-8 14-11 13-10 8-12 7-18 6-12 2h-18l-17-3-16-6-11-7-12-10-11-14-8-15-5-15-3-17-1-16 3-22 5-17 8-16 8-11 8-9 13-10 14-7 14-4z" fill="#FCFBFB"/>
<path transform="translate(1589,448)" d="m0 0h1v26l-3 26-5 23-7 21-9 20-10 17-12 17-12 14-11 11-11 9-14 10-25 13-24 8-25 5-15 1-2-6-6-66v-8l12-5 18-8 11-6 13-11 14-14 9-14v-2l-11 10-16 11-19 11-19 9-19 6-14 3-19 2h-19l-29-3-21-5-20-7-26-12-18-10-17-11-12-9-14-12-17-17-10-13 2-4 11-10 8-7 9-9 32 32 17 13 18 12 16 9 17 8 22 8 24 6 22 3h32l30-4 23-5 16-6 32-15 1 4-5 17-6 12-8 12-8 11-5 6-1 3 26-4 21-7 17-8 12-8 14-11 11-11 9-11 9-12 8-16 4-7 2-11z" fill="#C9D6E0"/>
<path transform="translate(731,1714)" d="m0 0h105l8 2 3 3 1 3 1 11v15l-2 9-5 4-11 1h-57v29l54 1 4 4 1 4v24l-3 8-2 2h-55v30h68l6 3 2 4v30l-3 6-4 3h-112l-6-3-5-7v-174l4-8 4-3z" fill="#FCFAF9"/>
<path transform="translate(1625,1124)" d="m0 0h27l12 3 14 7 10 8 8 10 7 14 4 14 1 7v22l-4 20-6 18-8 17-8 12-11 14-15 15-14 10-15 8-18 6-17 3h-32l-9 7-9 10-9 13-13 20-11 17-12 18-14 20-13 18-10 13-11 13-9 10-10 9-14 8-8 2h-15l-11-4-9-7-7-11-2-6v-14l4-13 6-11 10-13 28-30 19-19 8-7 9-9 8-7 9-9 8-7 22-22 9-11 7-9 3-5v-9l-4-23v-17l3-19 5-17 10-21 7-10 11-13 11-11 12-9 16-10 16-7 17-5zm2 19-17 4-12 5-15 8-11 8-19 19-10 15-9 19-5 19-1 10v13l4 27v12l-7 11-11 14-9 10-7 8-31 31-8 7-8 8-8 7-41 41-9 11-9 14-2 6v9l4 8 8 5h11l10-5 12-11 7-7 7-8 14-17 12-16 9-14v-2h2l7-11 11-16 16-24 20-28 9-9v-2l14-7h28l12-1 17-5 17-8 14-10 10-9 7-7 10-14 6-10 8-20 4-14 1-5v-27l-4-13-6-11-10-10-11-6-8-2z" fill="#54261E"/>
<path transform="translate(241,1711)" d="m0 0h24l18 4 15 6 11 8 5 6 2 6-1 10-5 12-6 9-7 6-6 1-25-10-6-1h-13l-11 3-10 6-8 11-4 13v20l3 10 4 8 7 8 12 6 4 1h18l15-4 13-6 7 1 6 4 7 11 5 16v7l-5 8-9 8-13 6-13 4-8 2-9 1h-13l-19-3-16-6-11-6-11-9-10-11-11-18-5-14-4-17-1-9v-14l3-20 5-15 7-14 9-12 8-9 13-10 15-8 14-4z" fill="#FCFBFA"/>
<path transform="translate(1227,1711)" d="m0 0h18l18 3 12 4 12 6 8 7 4 6 1 9-4 13-6 10-5 6-5 3h-7l-16-7-13-3h-11l-10 2-8 4-8 7-5 8-4 13v19l4 12 6 10 7 6 10 4 3 1h19l12-3 15-7 7 1 8 7 5 8 4 12 1 11-3 6-5 5-6 5-12 6-16 5-10 2h-20l-17-3-16-6-11-6-11-9-10-11-9-14-6-14-4-16-1-6v-30l4-18 6-15 7-12 7-9 7-8 10-8 14-8 14-5z" fill="#FCFBFA"/>
<path transform="translate(1228,1702)" d="m0 0h18l19 3 16 6 12 7 10 9 4 6 2 7v8l-4 12-8 15-7 7-9 4h-12l-17-7-9-2h-10l-11 4-8 7-6 12-1 5v14l3 10 7 10 9 5 14 2 11-2 12-5 8-4h11l6 3 8 8 3 5-4-26v-18l4-27 5-15 8-16 8-11 9-10 12-10 17-9 16-5 13-2h17l18 3 16 6 17 10 12 11 7 8 8 13 6 12 6 18 2 11 7-26 9-19 8-11 3-4h2l2-4 13-11 14-8 16-6 17-3h18l17 3 13 5 15 8 13 10 9 9 9 14 9 21 5 21 1 9v20l-2 16-6 21-8 16-7 11-15 15-13 8-13 6-15 4-13 2h-14l-19-3-15-5-15-8-10-8-10-10-10-15-8-16-5-17-2-9-6 25-9 19-8 11-9 10-8 7-15 9-16 6-14 3-7 1h-17l-14-2-16-5-16-8-11-8-15-15-9-14 2 9v8l-4 8-10 10-17 9-20 6-13 2h-19l-20-4-19-8-11-7-12-11-10-11-9-16-5-12-4-13-2-12v-29l3-17 5-15 8-16 8-11 10-11 13-10 15-8 16-5zm-1 9-19 4-13 5-12 7-14 12-8 10-8 13-6 14-4 15-1 6v30l4 18 5 13 5 10 8 11 9 10 10 8 15 8 16 5 13 2h20l21-5 14-6 8-6 5-5 3-4 1-8-3-12-4-9-4-6-7-6-7-1-18 8-9 2h-19l-11-4-8-6-6-9-4-10-1-4v-19l4-13 7-10 9-7 8-3 7-1h11l16 4 13 6h7l8-6 7-11 4-10 1-11-3-6-6-7-11-7-13-5-14-3-8-1zm163 0-18 3-12 4-16 9-13 12-8 10-9 16-7 19-3 19v22l4 22 6 16 8 13 11 13 13 10 14 7 19 5 8 1h19l15-3 16-6 10-6 10-8 8-8 7-10 8-16 5-17 2-12 1-18-2-18-5-19-8-16-9-13-10-10-15-10-13-6-16-4-9-1zm200 0-18 3-16 6-10 6-14 12-11 14-8 16-5 15-3 16-1 16 3 22 5 17 8 16 8 11 7 8 13 10 14 7 13 4 13 2h18l15-3 15-5 12-7 13-11 10-13 8-15 5-15 3-16v-28l-3-18-6-17-9-16-11-12-10-9-16-9-16-5-15-2z" fill="#6C2F24"/>
<path transform="translate(776,950)" d="m0 0 17 1 15 4 13 7 10 8 10 11 8 14 5 15 2 11v23l-3 14-6 15-10 14-8 8-11 7-12 5-10 2h-13l-14-3-14-7-12-11-7-10-6-14-3-12-1-8v-21l4-17 1-7-7 10-6 12-4 12-1 6-4-2-1-9v-12l3-15 5-12 6-10 9-10 12-9 10-5 14-4z" fill="#52261E"/>
<path transform="translate(1198,952)" d="m0 0h23l15 4 16 8 13 11 9 12 6 13 4 19v12l-2 8h-2l-5-15-6-12-7-8-3-1 4 13 2 12v15l-2 13-5 16-6 11-9 10-8 7-12 6-7 2h-26l-12-4-11-6-12-11-8-10-6-12-4-14-1-6v-27l4-17 8-16 7-9 9-9 14-9 11-4z" fill="#52261E"/>
<path transform="translate(1171,526)" d="m0 0 4 2 9 9 14 11 17 12 21 12 25 12 19 7 25 6 6 1-3 41-1 18-1 39-11-3-25-8-30-8-42-9-22-4-2-1-1-66z" fill="#FCFCFB"/>
<path transform="translate(544,1705)" d="m0 0h33l26 1 20 3 20 6 16 8 11 7 11 9 11 14 8 16 5 15 4 17 1-21 1-58 6-10 7-5 4-1h114l6 3 7 8 2 6v33l-4 8-6 5-6 2-58 1-1 10 47 1 6 3 4 5 2 7v31l-3 8-6 5-3 1-47 1v11h57l10 3 5 4 3 6 1 4v30l-4 10-6 5-2 1-16 1-103-1-7-3-5-5-3-6-2-14-1-62-5 21-5 13-10 16-9 11-14 11-15 8-18 6-27 4h-68l-8-3-5-4-4-8-2-11v-163l2-10 6-8 6-4zm-4 9-7 4-4 6-1 3-1 39v118l1 14 4 7 6 4 5 1h57l19-2 19-5 15-6 10-6 11-9 10-12 7-12 7-21 2-13v-21l-4-20-6-15-6-11-8-10-7-7-13-9-16-8-21-6-21-3zm191 0-7 3-4 6-1 3v174l6 8 5 2h112l5-4 2-5v-30l-3-5-5-2h-68v-30h55l3-3 2-7v-24l-2-5-3-3-54-1v-29h57l11-1 5-4 2-9v-15l-1-11-3-5-3-2-6-1z" fill="#6C3227"/>
<path transform="translate(794,511)" d="m0 0h2v52l-1 57v46l-3 2-48 11-31 9-19 6h-4l-6-93-1-8 27-12 19-10 19-13 13-11 16-16 9-11z" fill="#FCFCFC"/>
<path transform="translate(246,1702)" d="m0 0h15l20 3 13 5 14 7 9 7 6 9 2 6v10l-6 16-6 11-7 7-9 4h-13l-17-8-11-2-11 1-9 4-6 5-6 12-1 4v18l5 12 5 6 9 5 10 2 13-1 14-6 8-4h12l5 3 8 8 4 5-3-13-2-16v-14l2-19 4-17 5-12 8-15 11-13 7-7 11-8 15-8 16-5 14-2h16l18 3 13 5 13 7 12 9 12 12 9 14 6 12 6 20 2 17v20l-3 21-5 17-8 16-9 13-10 10-10 7-12 7-17 6-18 3h-15l-19-3-15-5-13-7-13-10-9-9-9-13-3-5 1 5v12l-4 8-9 9-14 8-16 6-16 3-9 1h-9l-16-2-15-4-14-6-12-8-10-9-9-10-9-14-7-17-4-15-2-14v-23l4-21 6-16 8-15 7-9 9-10 15-11 16-8 16-5zm-5 9-18 4-12 5-12 7-14 12-11 14-7 12-6 17-3 14-1 9v14l3 19 5 16 7 14 8 11 11 12 13 9 13 6 14 4 14 2h13l13-2 14-4 12-5 9-6 7-8 2-4v-7l-5-16-7-11-8-5-7 1-14 6-12 3h-18l-11-4-8-6-6-8-4-10-1-5v-20l4-13 8-11 10-6 11-3h13l12 3 15 7 7 1 6-3 8-9 6-13 2-9-1-7-4-7-8-7-14-7-13-4-11-2zm166 0-19 3-12 4-13 7-11 9-7 7-8 11-6 10-7 19-3 15-1 8v19l2 14 4 15 5 12 9 14 9 10 7 7 13 8 16 6 17 3h17l17-3 14-5 11-6 10-8 9-9 10-15 7-16 4-16 2-16v-11l-2-17-4-17-10-21-11-14-11-10-13-8-16-6-10-2z" fill="#6B2F24"/>
<path transform="translate(404,443)" d="m0 0h1l1 26 3 12 10 20 12 18 7 9 9 10 7 7 14 10 17 9 19 7 16 4 7 1h12l6-1 19 10 30 10-1 21-3 43-1 5-19-1-22-4-20-6-16-7-15-8-16-11-14-12-11-11-11-14-10-15-12-23-8-20-6-23-4-26-1-12z" fill="#C9D6E0"/>
<path transform="translate(1141,491)" d="m0 0 4 1 10 14 14 15 1 5-1 2-2 33-2-4-16-9-11-8-6-5-6 1-12 7-18 8-19 7-21 6-22 5-35 5-21 2h-44l-33-4-28-6-30-10-29-14-12-7v10h-1l-2-27v-8l23 10 26 10 24 7 29 6 27 3h47l27-3 29-5 26-7 25-9 22-10 23-13z" fill="#C9D6E0"/>
<path transform="translate(951,804)" d="m0 0h81l35 2 6 1-1 5-8 10-20 20h-2v2l-19 14-20 12-17 9-16 6-9 3-21 4-15 2h-19l2-5 10-9 10-10 7-9 9-14 7-14 2-7-7 1h-7l-4 1-1 3-13 5-28 7-26 5-15 2h-21l-2-4 10-10 7-9 9-12 5-3 21-3 20-2z" fill="#5D433C"/>
<path transform="translate(974,770)" d="m0 0h60l40 2 45 4 52 7 38 7 44 10 30 8 40 12 51 18 25 10 1-3 1 10v15l-13-5-21-9-46-18-36-12-33-10-36-9-40-8-45-7-32-4-43-3-30-1h-42l-45 1-44 3-35 4-49 8-34 7-43 11-30 9-38 13-33 13-34 15-5 2-1-3 1-11 5-2 16-8 19-8 45-16 34-11 24-7 41-10 35-7 43-7 52-6 41-3z" fill="#C9D6E0"/>
<path transform="translate(993,1472)" d="m0 0 4 1 7 3h9l9-3 8 14 10 13 14 14 14 10 17 9 18 6 21 4 15 2 1 1v17l-1-3-14-1-15-2-3-1v2l4 2 6 7 3 6 1 11-2 8-6 9-9 6-3 1h-15l-10-6-7-10-1-3v-15l5-10 8-7 4-2-17-6-14-8-12-9-9-8-11-14-7-11-25 1-14-1-8 14-8 11-13 13-14 10-12 6-6 2 9 6 7 8 3 9v8l-3 9-4 6-10 7-3 1h-13l-7-3-8-7-5-8-1-4v-11l3-8 4-7-14 1-11 1v-15l1-2 17-3 24-8 16-8 11-7 10-8 8-8 10-14 9-17 9 2h9z" fill="#C9D6E0"/>
<path transform="translate(1356,1214)" d="m0 0 2 1-9 13v4l-6 8-8 10-9 10-11 11-11 9-15 11-19 12-29 15-19 8-33 11-40 10-43 8-29 4-31 3-14 1h-67l-28-2-40-5-39-7-39-9-30-9-27-10-20-9-23-13-14-8-17-12-11-9-12-11-10-10-9-11-10-13 1-2 2-3 19 19 14 11 13 11 17 12 20 12 19 10 22 10 24 9 32 10 32 8 29 6 25 4 28 3 53 3h18l46-3 40-4 38-6 43-10 36-11 20-7 21-9 23-12 24-15 16-13 10-9 4-2v-2l8-7 11-10 7-8z" fill="#F1B9A1"/>
<path transform="translate(1097,808)" d="m0 0 26 3 60 10 37 8 45 12 35 11 21 7 2 5 5 20-1 3-102-27-47-11-44-8-21-3h-8l-11 9-12 11-14 11-15 11-21 13-19 10-20 8-15 5-28 6-24 3h-39l-21-3-5-4 2-6 7-9 7-1 12 5 11 2h32l25-4 25-7 20-8 23-12 14-9 12-9 14-12 14-14 10-13z" fill="#F1B9A1"/>
<path transform="translate(1424,996)" d="m0 0 10 2 16 8 13 10 8 10 8 13 5 13 3 15v21l-3 17-5 16-10 19-9 11-10 10-17 11-16 6-14 3h-4l1-9 4-22 2-16v-23l-3-23-2-9v-8l9-7 8-3h10l6 3 7 8 5 10 2 7v8h2l1-4v-14l-4-12-6-9-8-6-8-3-13-1 2-10 7-28 2-12z" fill="#F5D9BD"/>
<path transform="translate(565,996)" d="m0 0h5l3 13 5 23 4 16h-16l-10 4-8 7-5 10-2 7v11l1 4 4-10 6-12 7-6 7-3h9l8 4 8 7 1 5-5 30-1 25 3 24 4 18v5h-10l-12-3-17-8-11-8-10-9-10-12-10-19-5-17-2-14v-24l4-16 8-16 6-9 10-11 13-9 11-5z" fill="#F5D8BD"/>
<path transform="translate(677,594)" d="m0 0 3 1v102l-3 3-26 11-26 12-18 10h-3l1-21 5-77 3-36 5-1h35l20-3z" fill="#FCFBFB"/>
<path transform="translate(1829,1703)" d="m0 0h8l10 3 10 6 7 6 7 11 2 6v8l-5 9-13 16-13 17-11 13-7 9 2 5 7 9 13 16 11 14 13 16 9 13 1 2v10l-6 10-9 9-10 6-9 3h-15l-8-5-9-9-8-10-12-14-8-10-11-13-2-3-1 45-4 10-6 5-8 2h-37l-7-3-5-4-4-10-1-32v-144l2-9 7-8 5-2 8-1h26l12 2 7 6 4 10v40l5-5 14-17 12-14 9-11 9-9 5-3zm1 9-6 4-5 5-10 11-8 10-11 13-11 14-13 17-3 1v-28l-1-39-6-5-4-1h-33l-6 3-3 4-1 3v177l7 8 5 1h32l5-2 4-3 1-3 1-69 5 3 11 14 13 16 8 10 11 14 13 16 9 6h9l9-3 9-6 9-10 2-5-1-5-9-12-14-17-11-14-13-15-11-14 1-6 8-10 11-14 14-17 11-14 6-9v-8l-6-8-9-8-8-4-4-1z" fill="#6B3126"/>
<path transform="translate(1375,597)" d="m0 0h6l2 15 6 82 2 32v7l-5-1-19-10-17-8-22-9-11-5-1-1-1-67v-33l33 1 21-2z" fill="#FCFBFB"/>
<path transform="translate(820,818)" d="m0 0h7l-2 5-11 14-6 10 1 7 5 5 7 4 12 3h35l30-5h5l-2 2h-3v6l-10 8-7 2-25 3-31 4-6 2v2l5 2 8 7 3 6-1 6-6 5-6-2-10-5-14-3h-17l-13 3-17 8-6-3-2-4v-7l4-6 7-6 13-6 7-2 10-1h10l12 1-5-11-2-11v-8l-21 4-56 14-26 8-24 8h-6l3-11 3-16 8-4 36-12 34-10 44-11z" fill="#F1B9A1"/>
<path transform="translate(319,1290)" d="m0 0h35l2 2v23l-1 2-16 2-5 12-10 28-7 13-10 11v2l8 7 5 6 6 15 11 33v2l16 2 3 2v23l-1 2h-35l-5-6-11-25-11-28-7-13-11-4-6-2-1-1v-26l2-3 14-4 4-4 9-21 14-36 6-12z" fill="#F9FAFB"/>
<path transform="translate(452,1289)" d="m0 0 34 1 5 6 7 15 15 39 5 12 1 3 10 3 9 4 1 2v22l-4 3-13 4h-2l-2 5-9 19-14 34-7 13-3 2-33 1-1-1v-22l1-3 2-1 14-1 3-11 8-23 8-16 6-8 5-4-1-5-5-4-7-10-8-20-10-29-2-2-15-1-1-2 1-23z" fill="#F9FAFB"/>
<path transform="translate(416,1268)" d="m0 0h27l2 3-17 70-12 52-9 38-12 53-3 10-1 1h-30l-1-4 6-23 16-66 11-48 12-49 8-33z" fill="#F9FAFB"/>
<path transform="translate(981,1702)" d="m0 0 17 1 12 3 12 5 9 7 7 7 6 10 4 13 1 6v10l-3 13-6 12-8 10-8 8-1 3 4 4v2h2l4 5 3-1 8-10 5-4 4-1h10l6 3 11 9 8 9 4 7 1 7-2 7-8 11-5 6 2 4 8 11 2 4v10l-4 8-11 12-11 7-5 2h-9l-7-4-10-9-3-2-12 6-15 5-17 3h-24l-15-3-15-6-11-7-6-5-7-10-6-13-3-14v-15l3-14 5-12 9-12 13-11-2-6-6-14-2-10v-16l3-13 6-12 9-10 10-7 11-5 12-3zm-6 9-19 5-10 6-7 6-6 9-5 13-1 14 2 10 5 12 8 13 1 3-11 7-10 9-7 9-4 8-3 13v17l5 16 6 9 8 9 14 8 14 4 5 1h27l18-4 13-5 12-7 4 2 16 14 9 1 6-3 8-7 7-10 2-4-1-5-6-8-8-7-2-2 1-4 10-11 7-11 1-5-4-6-9-9-10-7-6-1-8 7-12 13-4-1-10-10-7-8-3-3 1-4 17-17 6-10 4-10 1-5v-14l-4-13-6-9-10-9-12-6-14-3z" fill="#6C3025"/>
<path transform="translate(1053,1412)" d="m0 0h10l16 4 16 7 13 8 11 9 10 12 9 16 6 13 10 28 4 14v5h-12l-22-2-20-4-15-5-15-8-11-8-11-11-9-14-5-11-1-7 8-16h3l9 13 8 9 13 9 12 6 10 3 1-2v2l8 1-4-13-10-19-9-12-8-7-15-9-11-4v-6z" fill="#D44136"/>
<path transform="translate(1228,1702)" d="m0 0h18l19 3 16 6 12 7 10 9 4 6 2 7v8l-4 12-8 15-7 7-9 4h-12l-17-7-9-2h-10l-11 4-8 7-6 12-1 5v14l3 10 7 10 9 5 14 2 11-2 12-5 5-3 3 1v3l-5 4h2v2l2 1-14 6-9 2h-19l-11-4-8-6-6-8-5-12-1-4v-19l4-13 7-10 10-8 8-3 7-1h11l16 4 13 6h7l7-5 7-11 4-10 1-11-3-6-5-6-11-7-13-5-14-3-8-1h-18l-19 4-13 5-12 7-13 11-8 10-8 13-6 14-4 15-1 6v30l4 18 5 13 5 10 8 11 9 10 12 9 15 7 13 4 13 2h20l21-5 14-6 8-6 5-5 3-6h1v11h-2l1 6-6 5-15 8-20 6-13 2h-19l-20-4-19-8-11-7-12-11-10-11-9-16-5-12-4-13-2-12v-29l3-17 5-15 8-16 8-11 10-11 13-10 15-8 16-5z" fill="#6C3024"/>
<path transform="translate(933,1410)" d="m0 0h6l1 3-3 5-13 7-16 12-11 11-8 14-8 18-1 7 13-5 16-7 12-9 9-8 9-11 3-4 3 1 5 9 2 2v7l-8 17-8 11-13 13-16 10-13 6-12 4-23 5-10 1h-12l-1-1 1-8 8-26 6-17 11-21 10-14 6-7 14-11 16-8 13-4z" fill="#D44136"/>
<path transform="translate(1256,1104)" d="m0 0h13l13 2 14 4 10 5 7 6 5 11v11l-4 8-6 7-13 8-16 6-10 2h-20l-15-4-14-7-9-8-3-5-1-4v-9l4-9 8-11 5-4 7-4h2v-2l12-2z" fill="#F1AA9B"/>
<path transform="translate(720,1105)" d="m0 0h30l12 3 13 10 7 9 4 10v7l-5 10-8 7-15 8-11 3-8 1h-15l-14-3-12-5-15-10v-2l-3-1-5-9v-12l4-8 7-7 10-5 12-4z" fill="#F1AA9B"/>
<path transform="translate(1347,871)" d="m0 0 5 1 37 16 12 5 3 4 3 28v51l-3 27-6 26-3 8-2-2-9-27-5-17-17-51-9-31-6-27-1-7z" fill="#5D433C"/>
<path transform="translate(1307,1751)" d="m0 0 1 3 2 1-7 15-4 15-3 22v18l3 20 1 7-4-4-7-8-4-3-3-1h-11l-17 8-6 2-11 1-11-2-10-6-7-10-3-10v-14l3-10 6-9 7-6 11-4h10l12 3 14 6h12l9-4 7-7 9-19z" fill="#FBFAF9"/>
<path transform="translate(324,1750)" d="m0 0 2 4-7 15-4 14-2 12-1 13v14l3 22 2 9-5-5-7-8-3-3-3-1h-12l-17 8-5 2-13 1-13-3-9-7-6-10-2-6v-18l4-11 6-8 7-5 11-3 13 1 13 5 8 4h13l9-4 8-9 7-15z" fill="#FBFAF9"/>
<path transform="translate(646,871)" d="m0 0h3l-1 9-8 30-14 43-3 8-6 18-13 44-4 12h-2l-2-6-1-12-4-20-3-28v-39l3-30 2-5 15-7 10-4 16-8z" fill="#5D433C"/>
<path transform="translate(582,1767)" d="m0 0h17l16 3 16 8 8 9 5 11 2 9v13l-3 12-4 8-5 6-9 6-8 3-16 2h-18l-1-1z" fill="#FCFAF9"/>
<path transform="translate(1237,1342)" d="m0 0h4l-2 6-9 14-12 12-13 9-22 12-17 7-24 7-22 4-7-1-20-10v-2l36-12 12-5 1-3-37 7-25 5-20 2-7 1-3-5-4-6v-2l43-4 37-6 48-10 27-7 18-6 14-6z" fill="#D34136"/>
<path transform="translate(1015,818)" d="m0 0 19 1 1 3-7 9-8 7-11 9-5 5-10 8-10 6-10 5-13 5-21 5-17 4-6 1v-5l11-11 7-9 9-14 7-14 3-8h-16l-20 3-8 2-12 2-22 5-16 3-9-1v-4h2l1-3 3-2 4-3 19-3 34-3 20-2z" fill="#6F4D45"/>
<path transform="translate(794,511)" d="m0 0h2v52l-1 57v46l-3 2-7 1-1-4v-45l2-32 1-26-7 4-14 11-18 12-24 13-23 9-8 3-8 1-2-22 27-12 19-10 19-13 13-11 16-16 9-11z" fill="#C9D6E0"/>
<path transform="translate(1171,526)" d="m0 0 4 2 9 9 14 11 17 12 21 12 25 12 19 7 25 6 6 1-2 25h-1l-1-5-38-9-30-10-23-10-19-10-14-9-3-1 5 77 1 19-10-1-2-1-1-66z" fill="#C9D6E0"/>
<path transform="translate(1391,1774)" d="m0 0h10l10 3 9 6 6 8 4 9 1 5v15l-3 10-5 8-8 7-11 4h-17l-10-4-9-8-6-12-2-12 1-11 5-12 8-9 12-6z" fill="#FBF9F9"/>
<path transform="translate(406,1774)" d="m0 0h11l12 4 7 5 7 10 3 8 1 6v10l-3 13-7 10-8 6-10 3h-16l-10-4-8-7-7-14-1-4v-17l4-11 6-8 7-6z" fill="#FBFAF9"/>
<path transform="translate(1591,1774)" d="m0 0h8l9 2 9 5 7 7 5 11 2 9v10l-3 12-6 9-7 6-11 4h-17l-9-4-6-4-6-7-4-9-1-4v-18l4-11 6-8 8-6 7-3z" fill="#FBF9F9"/>
<path transform="translate(767,1346)" d="m0 0 5 1 24 9 22 6 31 7 38 7 27 4 15 2 13 1-1 6-2 4h-35l-36-7-17-5h-5l12 6 22 8 17 5 1 2-26 11-10-1-15-4-20-8-21-11-14-10-11-9-9-11-5-10z" fill="#D34136"/>
<path transform="translate(1e3 1384)" d="m0 0h22l8 7 3 6 1 6v12l-3 14-6 15-8 11-2 2h-3l1-8 4-13 2-14h-2l-2 6-8 16-7 10-1 1-9 1h-12l-5-3v-8l2-7v-7l-3-14-3-1v10l-1 11v13l-5-4-4-11-1-7v-18l2-20 2-5 9 1 6 4 7 8 6 9v2l3-1v-10l-2-11z" fill="#D34136"/>
<path transform="translate(404,1702)" d="m0 0h16l18 3 13 5 13 7 12 9 12 12 9 14 6 12 6 20 2 17v20l-3 21-5 17-9 18h-2l-2-4h-3l-1 2 1-6 8-16 5-19 2-16v-11l-2-17-4-17-10-21-11-14-10-9-13-8-16-6-10-2-19-1-19 3-12 4-13 7-11 9-10 11-10 16-7 19-3 15-1 8v19l1 17-3-1-3-9-1-16-2-9v-16l4-17 5-12 8-15 11-13 7-7 11-8 15-8 16-5z" fill="#6C3024"/>
<path transform="translate(1631,1154)" d="m0 0 13 2 10 4 4 2v2h2l8 8 1 5-6-2-4-2-9-3-17-1-10 1-7 2-16 4-11 5-13 10-7 6-1 2h-2v2h-2l-2 5-5 9-3 7-3 10-3 8-1 4v20l3 10 9 12 12 6 4 1h21l13-4 9-4 14-6 6-5h2l1-3 11-9h2l-2 6-10 13-3 3h-2l-1 3-4 3h-2l-1 4-10 7h-2l-2 2-4 2h-5l-1 3-8 2 1 3-3 1-12 1h-28l-7 2 4-5 5-1-1-4-1-3h-2l-1-6h-2l-3-5v-5l-3-5-3-10-1-10v-11l-1-4 1-5h2l-1-4 4-12 7-14 6-9 1-2h2l1-4h2l2-4 4-5h2l2-4 3-3h2l1-3 8-7 3-1 1-3 3-2h3v-2l20-8z" fill="#BF352D"/>
<path transform="translate(525,1741)" d="m0 0h1l1 17v123l1 3 1 14 3 5v2l4 2 7 2h57l19-2 19-5 15-6 10-6 11-9 9-11 7-12 7-21 2-13v-34l2-3h2v2h2l2 8 1 14v10l-2 21-5 15-6 12-9 13-6 7-14 11-15 8-18 6-27 4h-68l-8-3-5-4-4-8-1-63v-90l4-4z" fill="#6C2E23"/>
<path transform="translate(981,1702)" d="m0 0 17 1 12 3 12 5 9 7 7 7 6 10 4 13 1 6v10l-3 13-6 12-8 10-8 8-1 3 4 4v2h2l4 5 3-1 8-10 5-4 4-1h10l6 3 11 9 3 4v5l4 2 1 3h-2v-2h-2l2 6-2 4-4-8-9-9-10-7-6-1-8 7-12 13-4-1-11-11v-2l-3-1-7-8 1-4 4-5 8-7 8-9 6-13 2-8v-14l-4-13-6-9-9-8-12-6-14-3h-19l-19 5-10 6-6 5-6 9-5 13-2 14-3 1v10l-1 7-2-3-2-10v-16l3-13 6-12 9-10 10-7 11-5 12-3z" fill="#6C3024"/>
<path transform="translate(544,1705)" d="m0 0h33l26 1 20 3 20 6 16 8 11 7 11 9 11 14 8 16 5 15 4 17 1-21 1-58h1v178h-1l-1-10-1-62-2 10h-1l1-27-1-14-1-8h-2v-2h-2l-2 9h-1l-4-16-7-16-7-11-9-10-13-10-16-8-18-6-16-3-10-1h-58l-7 4-4 8-1 39-1 115h-1v-126l-1-9-4 5v149h-1l-1-8v-163l2-10 6-8 6-4z" fill="#6C342A"/>
<path transform="translate(1232,1385)" d="m0 0 4 2 6 7-1 8-11 8-26 15-19 9-24 8-1 3 8 21 5 15 1 5v8l-6 1-1 3-6-18-7-16-11-21-8-11-1-3 30-8 21-8 19-9 15-9z" fill="#C9D7E0"/>
<path transform="translate(1824,1811)" d="m0 0 5 5 11 14 11 13 22 28 7 11v10l-6 10-9 9-10 6-9 3h-15l-8-5-9-9-8-10-12-14-8-10-11-13-2-3-1 45h-1l-1-48-4 1 1 8-2 9v29l-3 7-7 4h-34v-1l32-1 5-2 3-2 1-3 1-69 2-1 5 4 11 14 13 16 8 10 11 14 12 15 9 6h9l9-3 9-6 8-9 2-5-1-5-9-12-14-17-11-14-13-15-1-4-1-7z" fill="#6C3024"/>
<path transform="translate(246,1702)" d="m0 0h15l20 3 13 5 14 7 9 7 6 9 2 6v10l-6 16-6 11-7 7h-3l2-4 3-3 3-9 2-8h2l1-8h-1v-10l-4-9-8-7-14-7-13-4-11-2h-24l-18 4-12 5-12 7-14 12-10 13-7 12-6 17-3 14-3 38h-1l-2-11-1-16v-25l6-18 9-17 7-9 9-10 15-11 16-8 16-5z" fill="#6B2F24"/>
<path transform="translate(1046,1140)" d="m0 0 7 2 3 4-2 9-6 12-11 12-9 7-10 5-10 3-7 1h-13l-13-2-16-7-10-8-8-9-6-12-1-4v-8l3-3 6-1 4 4 4 10 8 10 12 8 12 4 14 1 16-3 13-7 8-9 6-12 3-5z" fill="#542820"/>
<path transform="translate(566,1060)" d="m0 0h9l8 4 8 7 1 5-5 30-2 25-7-2-13-8-9-7-10-11-5-9 1-3 4-10 6-12 7-6z" fill="#F1B9A1"/>
<path transform="translate(1418,1061)" d="m0 0h10l6 3 7 8 5 10 2 7v8h2l1-2-1 4-12 15-14 11-12 6-3 1-2 2-1-23-3-23-2-9v-8l9-7z" fill="#F1B9A1"/>
<path transform="translate(677,594)" d="m0 0 3 1v102l-3 3-6 2-1-2v-26l2-37v-15h-9l-27 3-12 1h-12v8h-1v-11l2-24 5-1h35l20-3z" fill="#C9D6E0"/>
<path transform="translate(902,1555)" d="m0 0h10l8 3 8 7 4 6 2 7v8l-3 9-4 6-10 7-3 1h-13l-7-3-8-7-5-8-1-4v-11l3-8 4-6 8-5z" fill="#542820"/>
<path transform="translate(316,1750)" d="m0 0h1l-1 9-3 5-3 9-3 5-3 3-1 4-6 2h-13l-17-8-11-2-11 1-9 4-6 5-6 12-1 4v18l5 12 5 6 9 5 10 2 13-1 14-6 8-4h12l5 3 7 7-2 1 1 4-6 2-5-5-4-2-7 1-14 6-12 3h-18l-11-4-8-6-7-9-4-10-1-5v-20l4-13 8-11 9-6 8-3 5-1h13l12 3 15 7 7 1 6-3 7-8 6-13 1-3z" fill="#6C3025"/>
<path transform="translate(660,907)" d="m0 0 1 3-8 28-4 16-5 19-7 32-7 30-6 22-5 27-3 25v28l4 24 6 23 6 19 2 10-2 3v-2l-4-2-9-19-5-16-5-21-3-20v-35l4-26 6-26 14-50 13-42 15-47z" fill="#F9F8F7"/>
<path transform="translate(1085,1555)" d="m0 0h17l8 4 7 8 3 6 1 11-2 8-6 9-9 6-3 1h-15l-10-6-7-10-1-3v-15l5-10 8-7z" fill="#53271F"/>
<path transform="translate(1375,597)" d="m0 0h6l2 15v11l-1-2h-45l-11-1v83l-5-1-5-3-1-67v-33l33 1 21-2z" fill="#CAD6DF"/>
<path transform="translate(312,1795)" d="m0 0h1l2 17 1 5 1 13 2 9h2l2-2 4 15 5 12 9 14 9 10 10 9 16 8 13 4 13 2h17l17-3 14-5 11-6 10-8 8-8 6-9 5 1 1-3 2 8-8 11-9 9-10 7-12 7-17 6-18 3h-15l-19-3-15-5-13-7-13-10-9-9-9-13-3-5-2 2-6-15-3-6 1-2 3 3-3-13-2-16v-14z" fill="#6C2F24"/>
<path transform="translate(582,1767)" d="m0 0h17l16 3 16 8 8 9 5 11 2 9v13l-3 12-4 8-5 6-9 6-8 3-16 2h-18l-1-1zm9 10v70l4 1 14-1 13-4 8-7 4-6 3-10v-12l-3-10-5-8-7-7-8-4-10-2z" fill="#6C3126"/>
<path transform="translate(621,906)" d="m0 0h5l1 5-6 24-6 18-6 16-9 17-7 9h-2l-2-15-1-11v-39l1-10h3v-2l12-6z" fill="#6F4D45"/>
<path transform="translate(1317,1742)" d="m0 0h5l4 2-2 5-9 16-7 19-3 19v22l4 22 6 16 6 10v3h-3l2 10-4-2-10-15 2 9v8l-4 8-5 5h-2v-5h2l-1-16-3-12-4-9-4-6-6-5-7-1-6 1v-2h-2l1-2 3-3 1-4h11l6 3 8 8 3 5-4-26v-18l4-27 5-15 8-16z" fill="#552921"/>
<path transform="translate(1195,882)" d="m0 0h14l14 3 10 4 13 9 4 7v7l-6 5-6-1-16-8-9-2h-18l-12 3-13 6-7-1-4-4-1-6 3-6 9-8 14-6z" fill="#54271F"/>
<path transform="translate(1387,1702)" d="m0 0h17l18 3 16 6 17 10 12 11 7 8 8 13 6 12 6 18-1 6-1-2-4 1-1-5-2-1 1 8-2-4-4-15-8-16-9-13-9-9-15-10-13-6-16-4-9-1h-11l-18 3-12 4-16 9-13 12-5 5-5-1-3-2 2-4 9-10 12-10 17-9 16-5z" fill="#6C2F24"/>
<path transform="translate(1587,1702)" d="m0 0h18l17 3 13 5 15 8 13 10 9 9 9 14 1 4v2l4 11 1 6-2 12h-1l-4-14-6-14-7-11-9-10-10-9-16-9-16-5-15-2h-11l-18 3-16 6-10 6-13 11-11 14-3 3-4-1-4 6-5 3 2-6 6-11 7-9 2-3h2l2-4 13-11 14-8 16-6z" fill="#6C2F24"/>
<path transform="translate(784,882)" d="m0 0h10l15 3 14 6 10 9 2 5-1 6-6 5-6-2-10-5-14-3h-17l-13 3-17 8-6-3-2-4v-7l4-6 7-6 13-6 7-2z" fill="#54271F"/>
<path transform="translate(1139,1798)" d="m0 0 2 1 1 26 3 13 5 16 7 14 8 11 9 10 12 9 15 7 13 4 13 2h20l21-5 14-6 8-6 5-5 3-6h1v11h-2l1 6-6 5-15 8-20 6-13 2h-19l-20-4-19-8-11-7-12-11-10-11-9-16-5-12-1-3-2-24 1-23z" fill="#6C3025"/>
<path transform="translate(1706,1720)" d="m0 0h2v181h2l6 7 5 1v2l34-1 7-4 2-6v-32l2-9v-5l5-2v53l-5 8-4 3-8 2h-37l-7-3-5-4-3-6-1-113 1-64v-7z" fill="#6C2F24"/>
<path transform="translate(1256,1104)" d="m0 0h13l13 2 14 4-4 1-14-3 3 5 6 2 2 4 3 5-2 5-5 11v6l4 2 7-1 4-6 5-1 1 1v8l-4 6-2 2-8 2-21-1-6-3v-5l4-6 3-7 1-9-2-3-7 1-4 5h-7l-8-3-5-5-4-3-2-7-7 1-8 6-2 1 2-4 5-4 7-4h2v-2l12-2z" fill="#F2BAA2"/>
<path transform="translate(406,1774)" d="m0 0h11l12 4 7 5 7 10 3 8 1 6v10l-3 13-7 10-8 6-10 3h-16l-10-4-8-7-7-14-1-4v-17l4-11 6-8 7-6zm1 9-8 3-7 6-5 10-1 4v12l4 10 5 7 10 5h14l8-4 7-8 3-8v-16l-4-10-5-5-5-4-6-2z" fill="#6B2F24"/>
<path transform="translate(1391,1774)" d="m0 0h10l10 3 9 6 6 8 4 9 1 5v15l-3 10-5 8-8 7-11 4h-17l-10-4-9-8-6-12-2-12 1-11 5-12 8-9 12-6zm0 9-9 4-6 5-5 10-1 3v14l4 9 4 6 8 5 8 2 10-1 9-5 5-6 4-10v-12l-3-10-6-8-6-4-7-2z" fill="#6C3025"/>
<path transform="translate(1591,1774)" d="m0 0h8l9 2 9 5 7 7 5 11 2 9v10l-3 12-6 9-7 6-11 4h-17l-9-4-6-4-6-7-4-9-1-4v-18l4-11 6-8 8-6 7-3zm1 9-9 3-8 7-4 8-1 4v14l7 14 5 4 7 3 8 1 9-2 9-6 4-6 3-11v-9l-3-10-8-9-7-4-4-1z" fill="#6B3025"/>
<path transform="translate(720,1105)" d="m0 0h30l12 3 13 10 2 4-6-4-1-2-3 1v-2l-5-1v-2l-7-1-2-2-4 1h-4l-1 3-2 1-3 7-3 3-7 1-5 6-6 12-1 5 1 2 6 1v2h2v-2h2l2-4 7-11 3-5 3 2-1 13-1 2h-2v2l-5 4-11 4-6 2h-16l-5-3-1-3 8-11 5-10 1-7-3-1h-11l-2-4 1-3h-6l-8 7-2 1 2-4 9-8 16-6z" fill="#F1B9A1"/>
<path transform="translate(1368,906)" d="m0 0 7 1 16 7 10 5 5 4 1 2v51l-1 8-3 1v-2l-4-1-9-13-7-12-5-13-8-22-3-14z" fill="#6F4D45"/>
<path transform="translate(716,1728)" d="m0 0h1l1 6 1 165 6 8 6 3 105 1v1l-14 1v2l-17 1-3-1h-7l-9 1-1 1h-62l-7-5-4-8-1-54v-61l1-53 1-6z" fill="#6B2B1F"/>
<path transform="translate(1475,1864)" d="m0 0 2 4-1 5h-2l-1 12-9 10-8 7-15 9-16 6-14 3-7 1h-17l-14-2-16-5-16-8-11-8-11-11-1-9v-2l4-1 12 14 12 9 14 7 19 5 8 1h19l15-3 16-6 10-6 10-8 7-7 7-10z" fill="#6B2F24"/>
<path transform="translate(1515,1753)" d="m0 0 4 1-1 5-7 17-4 17-2 16 1 16 1 6v8l-2-1-1 2-2-2-2 3v-2h-2l-2-9-6 25-9 19-7 10h-2l2-11h2v-11l6-16 4-20 1-18-2-26 3 1 1 4h5l2 7 7-26 2-5 7-5z" fill="#562B23"/>
<path transform="translate(774,1394)" d="m0 0 11 1 15 10 23 12 24 9 10 3-1 5-8 11-14-4-25-11-18-10-16-12-5-6 3-7z" fill="#C9D6E0"/>
<path transform="translate(728,1706)" d="m0 0h114l6 3 4 5-3 3 3 10v9l-1 11h-2l-2-25-3-5-8-2h-105l-7 3-4 8-1 173h-1l-1-165-1-5-3 1v6h-1v-16l6-9 6-4z" fill="#6D3429"/>
<path transform="translate(795,983)" d="m0 0h14l6 4 6 8 1 3v10l-5 10-9 6-10 1-7-3-5-4-4-7-1-4v-9l4-8 6-5z" fill="#FCF9F8"/>
<path transform="translate(1186,983)" d="m0 0h9l10 5 5 8 1 3v8l-3 9-5 6-7 3h-11l-8-4-6-10v-13l4-8 6-5z" fill="#FCF9F8"/>
<path transform="translate(1722,1705)" d="m0 0h26l12 2 3 3h-2l2 4 2 1-2 8h2l2 7 1 27-3 6-1 23 2 1h-3l-1-13v-15l-1-39-5-4-4-1h-33l-6 3-3 6-1 177h-1l-1-121 1-60-5 2v17l-1 64v98h-1l-1-32v-144l2-9 7-8 5-2z" fill="#6C3F36"/>
<path transform="translate(1424,996)" d="m0 0 10 2 16 8 13 10 8 10 8 13 5 13 3 15v21l-3 17-5 16-10 19-6 8-2-4 8-17 3-8 4-18 3-24-3-9-2-11-2-17-4-8-16-17-8-7-11-6-5 1-5 11h-1v-10z" fill="#FCE2C7"/>
<path transform="translate(1038,1770)" d="m0 0 1 4 2 10-2 2 1 3-8 10-8 8-1 3 4 4v2h2l4 5 3-1 8-10 5-4 4-1h10l6 3 11 9 3 4v5l4 2 1 3h-2v-2h-2l2 6-2 4-4-8-9-9-10-7-6-1-8 7-12 13-4-1-11-11v-2l-3-1-7-8 1-4 4-5 8-7 8-9 6-13z" fill="#6B3024"/>
<path transform="translate(850,1714)" d="m0 0 4 1 3 8v33l-4 8-6 5-6 2-60 1v10l-5 9h-2l-1-2v-17l1-10 57-1 11-1 5-5 1-7 3-1v-20l-3-10z" fill="#6C3126"/>
<path transform="translate(1051,1424)" d="m0 0 5 2 13 9 11 9 8 8 8 11 6 9 3 8 3 1-2-5 1-3 2 5v5l-13-1-10-4-2-2h5l-11-7-11-10-11-14-6-8-1-1v-10z" fill="#6D2A1E"/>
<path transform="translate(968,1831)" d="m0 0 5 2 9 10 7 8 9 10 2 3v3l-10 4h-20l-8-3-5-6-1-3v-12l3-8 5-6z" fill="#6B2F24"/>
<path transform="translate(1259 1e3)" d="m0 0 4 1 7 8 6 12 4 12-1 10-5 12-7 13-11 15-6 9h-2l-1 4-3 5-8 3h-3v2l-6 1-2-4 3-3 11-7 10-10 8-14 5-16 2-13v-15l-4-20z" fill="#FBF7F6"/>
<path transform="translate(731,998)" d="m0 0h1l-1 8-4 17v21l3 17 6 15 7 11 8 8 11 7 7 3v2l2 1-3 1-8-1v-2l-6-1-6-4-5-4v-2l-4-2-7-7-7-11-9-20-4-12-2-3h3v-7l7-19 7-11z" fill="#FBF7F4"/>
<path transform="translate(1476,528)" d="m0 0 2 1-8 13-9 10-12 12-14 10-12 6-7-1-13 4-7-1-1-1h-5l3-4h4l-1-3 20-7 20-10 16-10 14-10z" fill="#692C21"/>
<path transform="translate(1199,1794)" d="m0 0h1v6l3-1 1 4h2l1-2v18l3 10 7 10 9 5 14 2 11-2 12-5 5-3 3 1v3l-5 4h2v2l2 1-14 6-9 2h-19l-11-4-8-6-6-8-5-12-1-4v-19z" fill="#6C3025"/>
<path transform="translate(565,996)" d="m0 0h5l3 13 1 6v8l-5-5-4-10-3-4-6 1-11 8-10 9-5 11-2 10-3 4-5 9-6 9-3 7-3 1-1-1v-13l5-16 8-15 11-13 11-9 16-8z" fill="#FCE4CB"/>
<path transform="translate(1680,1755)" d="m0 0h3l8 20 4 18 1 9v20l-2 16-6 21-8 16-5 8-4-2 2-7 2-10 6-14 4-17 1-6v-28l-1-7v-10l1-10-3-9z" fill="#582C24"/>
<path transform="translate(815,1543)" d="m0 0 9 2 20 2-2 30-2 51h14v1h-15l-7-2v-65l-8-3-8-4-2-3z" fill="#C9D6E0"/>
<path transform="translate(855,1011)" d="m0 0h2l3 6v8h2l1 8-3 16-2 5-4 16-4 10-6 10-8 7-9 5-12 6-12 4-13 2-17 1-7-3-4-4h8l-1-2 14 2h13l10-2 12-5 11-7 8-8 9-13 6-15 3-14z" fill="#FCE1C7"/>
<path transform="translate(926,1764)" d="m0 0h2l2 10 5 12 8 13v4l-11 7-10 9-7 10-5 11-4 2-4-3 1-8 6-12 8-10 12-10-2-6-4-9v-9l1-10z" fill="#572B23"/>
<path transform="translate(1220,1369)" d="m0 0 2 1-8 7-11 7-18 10-19 8-24 7-22 4-7-1-18-9 2-1 8 1h7l3 1 7-1 16-1 6-2 6-1 24-8 7-1 9-6 10-5 3-3 9-6h3v2z" fill="#BF352D"/>
<path transform="translate(406,1774)" d="m0 0h11l12 4 4 4 2 6 3 13-2 3-4-10-2-4-4-2-9-4h-10l-8 3-6 5-5 10-2 14-3-1-1 7h-2l-2 2-1-4v-17l4-11 6-8 7-6z" fill="#6C3025"/>
<path transform="translate(346,1738)" d="m0 0v3l-8 11-6 10-7 19-3 15-1 8v19l1 17-3-1-3-9-1-16-2-9v-16l4-17 5-12 8-15h5v-4l2-1v2l5-2h2z" fill="#562B23"/>
<path transform="translate(1508,1364)" d="m0 0v3l-10 15-13 19-7 11h-2l-2 6-13 18-2 1 1-4 2-6-2-10 6-10h2l1-5 6-8 5-8h2l1-4 2-3h2v-2l7-4h2v-2h6v-2l4-1z" fill="#BF352D"/>
<path transform="translate(716,1728)" d="m0 0h1l1 6v116h-3l-2-5-2-4v-52l1-53 1-6z" fill="#53251D"/>
<path transform="translate(1391,1774)" d="m0 0h10l10 3 8 5v3l1 2h-2l4 7v6l4 4v10l-2 4h-2l-2-16-4-8-5-5-4-3-7-2h-9l-9 4-5 4-4 7-3-2-4 6-3 22-2-3-1-13 2-10 6-12 9-8 9-4z" fill="#6C3125"/>
<path transform="translate(902,1566)" d="m0 0h11l5 4 4 7v9l-6 7-4 2h-9l-9-4-4-7v-8l2-5 6-4z" fill="#5D433C"/>
<path transform="translate(1092,1565)" d="m0 0 10 1 5 5 3 5 1 2v7l-3 1-2 4-7 5h-7l-8-4-4-5-1-9 3-6h2l1-3z" fill="#5D433C"/>
<path transform="translate(951,1459)" d="m0 0 1 3-8 17-8 11-13 13-16 10-13 6-12 4-13 3-4-1 5-1 1-3 3-2h3l1-2 6-2 22-11 2-2 9-6 3-1 1-3 6-5 1-2h2l3-6h2l2-4 8-9 5-5z" fill="#BF352D"/>
<path transform="translate(1040,1468)" d="m0 0 2 1v2l4 1 5 3v2l4 1 6 7 13 10v2l4 1 9 7 10 6 6 3 2 4 2 1v2l13 2 10 2v1l-12-1-14-3-15-5-15-8-11-8-11-11-9-14-3-6z" fill="#BF352D"/>
<path transform="translate(1271,1835)" d="m0 0h11l6 3 8 8 3 5 2-2 5 15 3 6-1 2-2-2 2 8v8l-4 8-5 5h-2v-5h2l-1-16-3-12-4-9-4-6-6-5-7-1-6 1v-2h-2l1-2 3-3z" fill="#562B23"/>
<path transform="translate(932,1149)" d="m0 0 3 4 4 11 8 11 9 8 16 8 7 2 9 1h13l14-3 9-4 11-7 9-9 8-13 4-9 2 2 1 5-4 9-5 8-6 7h-2v2h-2v2l-11 8-12 5-12 1-3 1h-18l-10-3-14-7-9-4-5-6-4-3v-2l-3-1-4-7-3-7z" fill="#FCE1C7"/>
<path transform="translate(982,1747)" d="m0 0 10 1 5 4 3 6v7l-3 6-7 7-4 2-6-1-7-10-1-3v-10l4-6z" fill="#6B2F24"/>
<path transform="translate(701,1787)" d="m0 0h2v2h2l2 8 1 14v10l-2 21-5 15-6 12-5 8h-2v-13l9-27 2-13v-34z" fill="#572A22"/>
<path transform="translate(765,1344)" d="m0 0 9 2 20 8 30 8 42 9 44 7 33 4 1 3-4 9-2 1h-25l-5 1-25-5-17-4h-3l16 6 20 6v4l-8 4-19 8-11-1-21-7-4-3 6 1 15 5 9 2 9-1 21-9 1-1-26-8-18-7-8-5v-1l9 1 23 6 27 5h35l3-9h-13l-31-4-39-7-32-7-24-6-21-7-15-6 1 6-3-4z" fill="#6C2A1E"/>
<path transform="translate(1178,1536)" d="m0 0h1v10l1 1-1 7-5 4-7 3-1 47-1 2h-2l-1 17-1 2h-18v-1h17l-1-49-1-33 20-2z" fill="#CAD5DE"/>
<path transform="translate(989,1050)" d="m0 0h11l8 4 6 5 7 11 3 6v5l-2 1-4-2-8-12-9-6-3-1h-8l-8 4-7 7-6 9-4 1 1-8 6-12 7-7z" fill="#562A22"/>
<path transform="translate(1761,1710)" d="m0 0 4 1 5 8v46l8-4 5-6 1-3 4-4h2l2-4 2-3h3l2-4 6-1-1 4-8 9-11 14-13 16-5 7h-3v-23l3-7-1-26-1-7h-2v-7-1z" fill="#54281F"/>
<path transform="translate(828,889)" d="m0 0 7 3 6 10-1 10-6 5-7 3h-7l-8-4-6-4-11-2h-9l-8 3-11 5-5 1h-7l-1-4 17-8 10-2h17l16 4 12 6 5-2 3-5-1-6-8-10z" fill="#FCE0C6"/>
<path transform="translate(1082,1821)" d="m0 0 3 1 7 11 1 7-2 7-8 11-5 6 2 4 8 11 1 2v6l-5-2-2-4-6-2-1-3-4-2-7-7 1-4 10-11 7-11 1-2h2v-6l-1-4h2v2h2l-6-7z" fill="#582B22"/>
<path transform="translate(1706,1720)" d="m0 0h2v62l-1 45h-5l-1-35 1-64v-7z" fill="#52251D"/>
<path transform="translate(947,1144)" d="m0 0 5 2 7 10 10 9 11 6 7 2h13l10-2 8-4h3v-2l4-1v-2h2l2-4 3-5h2l2-5h2l1-3h1l-1 7-7 11-9 8-13 6-13 2-14-1-14-5-12-9-8-11-2-5z" fill="#FCE0C6"/>
<path transform="translate(672,886)" d="m0 0h5l-1 6h-2l-2 5-8 16-7 22-8 29-5 24-5 15-2 10-1 4v6l-2 3-2 9-3 6-1-3 4-16 10-44 5-21 4-13 5-21 4-13-1-4 6-19z" fill="#FDE6CC"/>
<path transform="translate(1625,1302)" d="m0 0 2 1-16 8-13 4-18 2h-26l-10 6-10 10-13 18-8 12-29 43-15 22-8 11-14 17-6 8h-2l-2 4-13 14-11 8-9 4-11-1-3-3 4 1h11l10-5 12-11 15-16 11-14 13-17 9-14 1-2h2l2-5 11-16 10-15 17-25 10-14 9-10 4-5 11-7 3-1h28l12-1 17-5z" fill="#6C2A1E"/>
<path transform="translate(728,1706)" d="m0 0h114l6 3 4 5-3 3 3 10v9l-1 11h-2l-2-25-3-5-8-2h-109l3-2 72-1 1-1 16-1 5-2-96-1z" fill="#6D3C32"/>
<path transform="translate(936,1430)" d="m0 0 2 1-1 5-11 13-7 8-10 8-11 8-4 3h-4l2-5 5-8 5-5 7-8 8-8 15-10z" fill="#BF352D"/>
<path transform="translate(1707,1796)" d="m0 0h1v105h2v5h-2l-2 2-1-4h-2l-1-2v-75l4-1z" fill="#6B291D"/>
<path transform="translate(1226,949)" d="m0 0h9l16 5 5 5 7 6 8 11 5 5 6 10 3 9v10l-1 3h-2l-4-15-7-14-9-11-12-9-14-7-15-4v-2z" fill="#FCE1C7"/>
<path transform="translate(432,1782)" d="m0 0 4 1 7 10 3 8 1 6v10l-3 13-7 10-7 5h-4l2-5 5-6 2-4v-7l1-3 1-20-3-12z" fill="#562A22"/>
<path transform="translate(1208,1315)" d="m0 0h2v2l3 1-3 5-4 3-11 5-16 3-12 1-4-1-7-2 1-2 11-3h3v-2l24-7 10-2z" fill="#F1AB9B"/>
<path transform="translate(1349,960)" d="m0 0h2l14 45 10 38 2 8v10l-2-3-4-10-4-13-2-7-2-8v-5l-2-1-4-12-4-13-4-18-1-10z" fill="#FCE0C6"/>
<path transform="translate(934,1429)" d="m0 0h5l1 3-4 8-10 13-16 16-13 8-2 3 6-1-3 2-14 6-5 1 1-8 8-18 6-11 8-9v3l-6 7-8 16-6 13-1 4 3-1 3-10 6-8 6-9 8-9 10-8zm2 1-12 7-10 8-11 11-4 6-3 3-6 9v2l6-1 7-6 11-8 10-9 8-10 6-8-1-4z" fill="#6C2A1E"/>
<path transform="translate(842,1909)" d="m0 0h3l1 7 2 1-2 1-16 1-103-1v-1l58-1 3-1 14-1 9 1 10-1 1-2-91-1v-1z" fill="#6D382E"/>
<path transform="translate(1229,1046)" d="m0 0h6l6 4 2 5-1 7-4 5-2 1h-8l-5-3-3-7 2-8 4-3z" fill="#FAF6F5"/>
<path transform="translate(759,1046)" d="m0 0 8 2 4 6v8l-6 6h-10l-5-5-1-2v-7l4-6z" fill="#FAF7F5"/>
<path transform="translate(1689,1835)" d="m0 0h4v7l-5 17-8 16-5 8-4-2 2-7 2-10 6-14 3-11 2-3z" fill="#572B23"/>
<path transform="translate(505,1827)" d="m0 0h1l1 9v11l-6 17-7 13h-2l-2-4h-3l-1 2 1-6 8-16 5-19 4-6z" fill="#572B23"/>
<path transform="translate(309,1846)" d="m0 0h3l5 13 4 10v2h2l1 3v12l-4 8-4 3-2-2 1-5-1-14-5-16-4-7v-2l5-1z" fill="#572A22"/>
<path transform="translate(850,1714)" d="m0 0 4 1 3 8v33l-4 8-4 4h-6l-1-5 2-3 3-1 1-11 3-1v-20l-3-10z" fill="#562A22"/>
<path transform="translate(1317,1742)" d="m0 0h5l4 2-2 5-9 16-7 19-7-7 1-7 7-15 6-11z" fill="#582B22"/>
<path transform="translate(1137,1778)" d="m0 0 2 2 6-2 1 4-3 15-1 28h-1l-1-26-2 3-1 24 1 9v11l-2-3-3-16v-29l3-17z" fill="#6D362B"/>
<path transform="translate(509,1097)" d="m0 0 2 1 7 17 12 21 2 4h2l8 12v3h2v3l2 1-4-1-8-7-8-9-7-11-7-15-3-10z" fill="#FCE0C5"/>
<path transform="translate(1417,1783)" d="m0 0 4 1 6 9 3 7 1 5v15l-3 10-5 8-7 6h-3l-1-4 6-3 2-4 2-1 1-4-2-4v-5l3-1 1-10-1-6-3-1v-7l-3-5v-4z" fill="#562B23"/>
<path transform="translate(1195,905)" d="m0 0h18l11 3 4 2v2l-10 1h-19l-13 3h-15l5-5 13-5z" fill="#FCE1C7"/>
<path transform="translate(1082,1451)" d="m0 0 4 2 8 10 7 11v5h-4l-11-7-11-8-3-3v-2h-2l-4-6 4-1v2h2v2l4 2 5 2z" fill="#BE342C"/>
<path transform="translate(819,960)" d="m0 0h7l10 5 8 7 6 10 5 17v8l-2 3-6-17-8-13-11-12-9-6z" fill="#FCE1C7"/>
<path transform="translate(1764,1832)" d="m0 0 3 2h-3l2 6 5 2 3 4-1 9-1 46h-1l-1-48-4 1 1 8-2 9v29l-3 7-7 4h-34v-1l32-1 5-2 3-2 1-3 1-69z" fill="#6E3F36"/>
<path transform="translate(1383,1142)" d="m0 0h1v9l-6 25-6 17-9 19-3 1-1-7 4-10 6-11 4-11 4-13 3-15z" fill="#FCE0C6"/>
<path transform="translate(312,1795)" d="m0 0h1l2 17 1 5 1 13 2 9h2l2-2 1 7-2 1 1 8-1 2h-2l5 13 1 4-3-3-2 2-6-15-3-6 1-2 3 3-3-13-2-16v-14z" fill="#6B2B20"/>
<path transform="translate(1446,1451)" d="m0 0 2 1-8 10-15 16-10 9-10 5-3-1 5-3-1-2 4-7 3-1v-2l5-3 6-5h2l2-5 5-4 7-1z" fill="#BF352D"/>
<path transform="translate(1849,1772)" d="m0 0 1 3-10 12-11 14-5 6v5l-2 2 1 7 1 2-4-2-8-10 1-6 3 1 2-4h3l1-3h2l1-4 3-5 4 1-1-3h4l1-6 2-1 1-3 7-3z" fill="#562A22"/>
<path transform="translate(711,409)" d="m0 0 4 2 9 12 11 14 8 9 1 4 2 3-2 2-4-1-15-15-13-25z" fill="#682D22"/>
<path transform="translate(902,1566)" d="m0 0h11l5 4 2 3v7l-2 4v-2l-18-2-4-2-1 2-2-2 1-6 4-5z" fill="#6E4D45"/>
<path transform="translate(789,1320)" d="m0 0 7 1 15 3 3 2 11 3 7 4 1 3h-20l-5-2-8-2-3-3-6-3-2-3z" fill="#F1AA9B"/>
<path transform="translate(711,1722)" d="m0 0h1v178h-1l-1-10-1-62-2 10h-1l1-27-1-14-1-9 2 3 2 10 1-21z" fill="#6F4D45"/>
<path transform="translate(969,1416)" d="m0 0 4 1 3 14v7l-2 7v8l4 2h12l9-1 5-5-2 6-4 2-9 1h-9l-11-4-5-3-4-9-1-7 2 3 4 9 2 2v-12z" fill="#6C2A1E"/>
<path transform="translate(763,880)" d="m0 0 5 1v4l-17 9-6 7-1 2v7l2 4 2 1v2l3 1v1h-5l-7-6v-10l2-9 3-6h2v-2l8-5z" fill="#FCE2C7"/>
<path transform="translate(1092,1565)" d="m0 0 10 1 4 4 1 5-6 5-2-2-3 3-5-1-3-1-4 4-3-1-1-8 2-3h2l1-3z" fill="#6E4D45"/>
<path transform="translate(625,1181)" d="m0 0 3 4 6 10 2 5 8 13 1 4 3 1 2 4v5l-2 1-5-3-4-3-2 2-5-5-2-5 3-1-4-16-4-13z" fill="#FDE5CA"/>
<path transform="translate(1319,886)" d="m0 0h8l2 1 14 47 4 13 1 9-3-3v-4h-2l-4-10-2-9-4-16v-3h-2v-6h-2v-3h-2l-3-6-5-6z" fill="#FCE0C5"/>
<path transform="translate(1406,1146)" d="m0 0 3 3v22l2 2h8l9-3h3l-1 3-13 5-14 3h-4l1-9 4-22z" fill="#FBDFC5"/>
<path transform="translate(1153,1375)" d="m0 0h6l-1 3-14 6-3-1 1-3-37 7-25 5-9 1h-11l3-3 12-2 9-2 10-2h4 10l12-3 11-1z" fill="#BF352D"/>
<path transform="translate(1770,1852)" d="m0 0h1v53l-2 1-4-8-1-30 2-9v-5z" fill="#69291D"/>
<path transform="translate(550,1051)" d="m0 0h4l-2 4-6 7-4 10-1 4h-2v14l-5-5-2-6v-9l4-8 7-7z" fill="#FDE3C8"/>
<path transform="translate(779,946)" d="m0 0 9 1 5 2v1h-19l-21 6-10 5-13 10-4 2 2-4 6-7 2-3h2v-2l3-3 9-4 8-2h14z" fill="#FCE1C6"/>
<path transform="translate(1170,522)" d="m0 0 4 3-1 2-2-1 1 3 2 68v66h-1l-2-99-1-9-1-2-1 5h-1v-17l1-13z" fill="#6D4C44"/>
<path transform="translate(1158,1750)" d="m0 0h2l-2 5-8 16-3 8-7 1-2 1v-7l8-19 4-2 4 1z" fill="#572B23"/>
<path transform="translate(752,1707)" d="m0 0h75l-4 3-9 1-15 1-44-2z" fill="#52251D"/>
<path transform="translate(1139,1798)" d="m0 0 2 1 1 26 1 2 1 19 1 4-2 3-1 2h-2l-2-6-2-24 1-23z" fill="#53271F"/>
<path transform="translate(1137,1380)" d="m0 0h5l1 3-17 7-3-1 2-3-19 3-12 3-13 2-21 2h-8v-3l5 1 3-1 25-3 20-4z" fill="#6C2A1E"/>
<path transform="translate(1370,1796)" d="m0 0 2 1-1 8v14l3 10-5 3 1 5h-2l-5-9v-10l2-16z" fill="#562A22"/>
<path transform="translate(1644,1124)" d="m0 0h8l12 3 14 7 10 8 6 8-4 2 1 4-5-5-1-3-5-4v-2h-3v-4h-3l-1-2-5-2-8-4-9-4-7-1z" fill="#6B2F24"/>
<path transform="translate(322,1842)" d="m0 0 3 4 6 16 3 5v6l-2 7-3-1-3-5-5-13-1-6h2l-1-10z" fill="#562921"/>
<path transform="translate(154,1779)" d="m0 0h3l-2 9 3-1 1 2-1 16-2 29h-1l-2-11-1-16v-25z" fill="#54271F"/>
<path transform="translate(952,1455)" d="m0 0 2 1-1 8-8 16-8 11-6 7-14 11-14 8-19 7-22 5-6 1h-18v-1l21-2 27-6 15-6 13-7 11-8 12-12 8-13 6-13z" fill="#6C2A1E"/>
<path transform="translate(966,1350)" d="m0 0h21l9 1 1 3-10 2-22 1-14-2-1-3 9-1z" fill="#F1AA9B"/>
<path transform="translate(1224,836)" d="m0 0h11l10 3 3 3v2h-2v2l-4 1h-13l-8-5v-4z" fill="#F1AA9B"/>
<path transform="translate(968,1844)" d="m0 0 4 1 12 14v4l-13-1-5-3-1-2v-8z" fill="#F6F3F2"/>
<path transform="translate(1686,1792)" d="m0 0h2v3l3 1 1 27 1 6 1-6h1v10l-1 5-1-3-7 1-1 2 1-11z" fill="#6C3429"/>
<path transform="translate(1223,1105)" d="m0 0 3 1 1 3 4 1-7 4-10-1-23-1-8-3v-2h33z" fill="#FBDEC4"/>
<path transform="translate(681,593)" d="m0 0h2l2 8v13h-1l-1-17h-2v100l-2-3v-100z" fill="#6B4B43"/>
<path transform="translate(762,1911)" d="m0 0h74v1l-14 1v2l-17 1-3-1h-7l-10 1-7-3-16-1z" fill="#52251D"/>
<path transform="translate(323,1748)" d="m0 0 1 4-5 13-6 11-7 7h-3l2-4 3-3 3-9 2-8h2l2-9z" fill="#562B23"/>
<path transform="translate(1138,1062)" d="m0 0h3l4 9 6 10 9 10 10 8 4 3-4 1-11-6-6-6v-2l-3-1-7-11-1-6h-2z" fill="#FBDFC5"/>
<path transform="translate(1266,1071)" d="m0 0 1 2-9 16-3 5 1 7v4l-20 2 3-2 5-2 4-8h2l2-5 10-13z" fill="#FDE6CB"/>
<path transform="translate(716,1728)" d="m0 0h1l1 6v29h-1l-1-13v3l-2 1 2 4v7l-4 1v-30l1-6z" fill="#6C2A1E"/>
<path transform="translate(932,1149)" d="m0 0 3 4 4 11 8 11 9 8 11 6v1l-7-1-9-4-5-6-4-3v-2l-3-1-4-7-3-7z" fill="#FBDFC5"/>
<path transform="translate(1298,1785)" d="m0 0h1l1 16-1 37 1 11-2-4-3-20v-18z" fill="#6E3C33"/>
<path transform="translate(1138,1440)" d="m0 0 4 4 7 14 6 11v4l-5-1-2-5-5-9v-3h-2l-6-12z" fill="#6C2A1E"/>
<path transform="translate(1219,881)" d="m0 0h12l10 6v2h2l2 7-4-1-10-6-12-5-2-2z" fill="#FCE0C6"/>
<path transform="translate(1447,550)" d="m0 0h3v2l-5 5-9 5-6 3-4 3-6 2-7 1-5 2h-6l3-2 15-6 21-11z" fill="#582E26"/>
<path transform="translate(1764,1834)" d="m0 0 5 1 12 15-1 3-1-3h-2l3 5-1 4 4 5-1 3-9-11-1-3 1-7-5-5-3-1z" fill="#572D25"/>
<path transform="translate(850,1861)" d="m0 0 4 1 3 6 1 4v30l-3 1v-24l-5-11v-4z" fill="#5B3028"/>
<path transform="translate(1271,1835)" d="m0 0h11l3 1-2 6-2 2-9 2h-4v-2h-2l1-2 3-3z" fill="#572B23"/>
<path transform="translate(1335,917)" d="m0 0 3 1 9 29 1 9-3-3v-4h-2l-4-10-4-18z" fill="#FBDEC4"/>
<path transform="translate(1769,1869)" d="m0 0h2v36l-2 1-4-8 2-17z" fill="#53261D"/>
<path transform="translate(990,1060)" d="m0 0h8l10 5 6 7v3h-2l-10-10-7-1-9 3-6 4h-3l10-10z" fill="#FBDEC4"/>
<path transform="translate(729,1082)" d="m0 0 12 12 2 1v2l4 2 5 4 8 3v1l-10-1-8-2-1-6-3-1-8-11z" fill="#FDE6CB"/>
<path transform="translate(844,796)" d="m0 0h10l4 2h-2v3l-4 1-22 1v-3z" fill="#6C2A1E"/>
<path transform="translate(1763,1723)" d="m0 0h2l2 7 1 27-3 6h-1z" fill="#6C2A1E"/>
<path transform="translate(1078,1871)" d="m0 0 5 1 6 9v6l-5-2-2-4-6-2-1-4z" fill="#562921"/>
<path transform="translate(711,409)" d="m0 0 4 2 9 12v2h-2l3 5v7l-4-5-9-18z" fill="#593028"/>
<path transform="translate(1306,1750)" d="m0 0h1l-1 8-9 17-5 5h-2l2-4 3-5 2-7h3l1-7 3-6z" fill="#562C24"/>
<path transform="translate(877,1387)" d="m0 0h12l4 1 13 1h3l7 1 15 2v1h-27l-27-5z" fill="#BF352D"/>
<path transform="translate(1045,1767)" d="m0 0h2v8l-6 12-2 1-1-3 2-2-2-9 2-4z" fill="#552921"/>
<path transform="translate(910,858)" d="m0 0h2l-2 4-13 11-7 6h-2l2-4 7-6 1-6 5-1v-2z" fill="#F6D3B9"/>
<path transform="translate(871,1374)" d="m0 0 16 2 27 4 15 2v1h-24-4l-3-1v-2h-5l-7-2-13-2z" fill="#BF352D"/>
<path transform="translate(1301,596)" d="m0 0 11 1 9 1 40 1v1l-14 1-27-1-5-1v29h-1l-1-26h-2v-4l-10-1z" fill="#694942"/>
<path transform="translate(984,1756)" d="m0 0 5 1 1 1v7l-2 3h-5l-2-5 1-6z" fill="#F2F1F1"/>
<path transform="translate(795,509)" d="m0 0h5l1 24 1 16v26h-1l-2-41v-11h-2l1-12-4-1z" fill="#674941"/>
<path transform="translate(1628,1807)" d="m0 0 3 1v10l-1 6-3-1v-2l-3-1v-2h-2v-2l3-2z" fill="#572B23"/>
<path transform="translate(312,1795)" d="m0 0h1l1 33 1 1 2 22-2-3-3-17-1-9v-14z" fill="#704E46"/>
<path transform="translate(1038,1454)" d="m0 0 1 2-1 6 5 12 7 12 11 12 3 4-4-2-9-9-8-11-7-16v-7z" fill="#6C2A1E"/>
<path transform="translate(1450,559)" d="m0 0h2l-2 4-13 10-10 5-4-1 3-2h3l1-3 9-4 5-5z" fill="#593028"/>
<path transform="translate(774,522)" d="m0 0 2 1-4 2-1 3h-2l-2 4-4 3-4 2-4-1 3-5 13-7z" fill="#6C2A1E"/>
<path transform="translate(1083,1839)" d="m0 0h1v5l2 1-4 5-2 4-3 3-7 1 6-8 6-9z" fill="#6B3227"/>
<path transform="translate(1619,1785)" d="m0 0 4 2 5 9v8l-2 2-2-3h-1l-1-9-3-6z" fill="#552921"/>
<path transform="translate(1285,1837)" d="m0 0 4 2 1 2-2 10-9-6 3-3 2-4z" fill="#6A3024"/>
<path transform="translate(1025,878)" d="m0 0 3 1-14 8-16 8-8 2v-2l18-8z" fill="#F4CAB1"/>
<path transform="translate(312,1848)" d="m0 0 4 4 2-1 7 17 1 4-3-3-2 2-6-15-3-6z" fill="#6F4D45"/>
<path transform="translate(151,1787)" d="m0 0h1l1 25-3 1v9h-1v-23z" fill="#6D392F"/>
<path transform="translate(1707,1884)" d="m0 0h1v17h2v5h-2l-2 2-2-4 1-15z" fill="#53261E"/>
<path transform="translate(770,1356)" d="m0 0 4 4 7 8v2l4 2 9 8 12 8-2 1-12-8-14-12-7-9z" fill="#6C2A1E"/>
<path transform="translate(1296,1848)" d="m0 0 3 3 2-2 5 15 3 6-1 2-2-3-2 1-5-13z" fill="#6C4C44"/>
<path transform="translate(839,1822)" d="m0 0h1v11l-4 6h-3l-1-4 3-1v-8h2v-2h2z" fill="#572A22"/>
<path transform="translate(1479,1751)" d="m0 0h2l7 14 3 8v7h-2l-1-7-3-5-3-9-3-5z" fill="#5A3028"/>
<path transform="translate(1867,1726)" d="m0 0 3 1 2 5v10l-5-5-2-4z" fill="#55281F"/>
<path transform="translate(980,530)" d="m0 0h6v2l3-1 4 3h-8l-2 1-14 1h-4l1-3 4-1 2 1 7-2z" fill="#6C2A1E"/>
<path transform="translate(975,1844)" d="m0 0 5 2 7 8-2 2h-2l-4-1-5-7z" fill="#542921"/>
<path transform="translate(848,1721)" d="m0 0 3 2 1 4v9l-1 11h-2l-1-14z" fill="#6D3429"/>
<path transform="translate(1143,1443)" d="m0 0 4 5 9 18v2l-4-2-8-16-2-5z" fill="#582E26"/>
<path transform="translate(970,1418)" d="m0 0h2l1 3v20l-1 4-2-1z" fill="#52251D"/>
<path transform="translate(1206,1792)" d="m0 0h4l-1 5-3 6h-2l-2-3h-2v-6l4 1 1-2z" fill="#552820"/>
<path transform="translate(833,1374)" d="m0 0 14 3 7 3-3 1h-5l-2 1-12-6z" fill="#BD342C"/>
<path transform="translate(708,1827)" d="m0 0 2 1v53h-1l-1-45-1-3z" fill="#DCC8C2"/>
<path transform="translate(961,1840)" d="m0 0 2 3 2 7-2 4h-2l-1-5h-3v-6z" fill="#53271E"/>
<path transform="translate(588,1810)" d="m0 0h1l1 9v28l-3 2-1-4 1-4 1-5z" fill="#52251D"/>
<path transform="translate(1711,1707)" d="m0 0 3 1-6 4-1 2 2 1h-2v3l-4 2v19h-1l-1-10v-10l3-6z" fill="#6A3329"/>
<path transform="translate(579,1161)" d="m0 0 4 1 3 7-6 1-4-1-1-4z" fill="#F2BAA2"/>
<path transform="translate(1422,1800)" d="m0 0 4 4v10l-2 4h-2l-1-17z" fill="#6D3328"/>
<path transform="translate(1507,1840)" d="m0 0 2 2 5 15 4 8v2l-4-2-4-9-3-11z" fill="#5A2F27"/>
<path transform="translate(660,907)" d="m0 0 1 3-7 24-3 1 2-9 6-18z" fill="#F4EEEB"/>
<path transform="translate(968,1831)" d="m0 0 5 2 2 4-9-1-7 7-1-2 6-8z" fill="#5D342C"/>
<path transform="translate(990,1749)" d="m0 0 5 1 4 5v7l-2 2-4-5v-7z" fill="#552921"/>
<path transform="translate(313,1805)" d="m0 0 2 3 1 9v13l-3-2z" fill="#6C2A1E"/>
<path transform="translate(1789,1870)" d="m0 0 4 1v2l3 1v3l2 1-1 4h-3l-5-7v-2h2v-2z" fill="#562921"/>
<path transform="translate(1307,1751)" d="m0 0 1 3 2 1-7 15-2 7h-1l-1-7 7-15z" fill="#CED2D7"/>
<path transform="translate(999,1061)" d="m0 0 6 2 7 6 2 3v3h-2l-10-10-3-1z" fill="#FADAC1"/>
<path transform="translate(161,1776)" d="m0 0h1l-1 9-1 5-5-2v-5l2-4z" fill="#612C22"/>
<path transform="translate(504,1776)" d="m0 0h3l1 14-2 2-3-5v-10z" fill="#53271F"/>
<path transform="translate(1134,1019)" d="m0 0h1v26l-2-2-2-7 1-6 1-2z" fill="#FEE7CC"/>
<path transform="translate(383,1815)" d="m0 0 3 1v8l1 2-3 1-3-2-1 3-1-1v-5l3-2z" fill="#5A271E"/>
<path transform="translate(882,879)" d="m0 0h5l-2 4-6 6h-2v-6l2-3z" fill="#FCDFC5"/>
<path transform="translate(324,1750)" d="m0 0 2 4-7 15-3 10-1-4 1-6 5-11z" fill="#DBC9C5"/>
<path transform="translate(905,1849)" d="m0 0 2 2v19l-2-2-2-10 2-5z" fill="#52251D"/>
<path transform="translate(777,1776)" d="m0 0 3 1-1 9-2 4h-2v-13z" fill="#53251D"/>
<path transform="translate(727,1715)" d="m0 0h36v1l-35 1-7 6 2-5z" fill="#D4D6DB"/>
<path transform="translate(852,1907)" d="m0 0 2 2-1 4-3 3h-4l-1-6 5-2z" fill="#562A21"/>
<path transform="translate(316,1750)" d="m0 0h1l-1 9-3 5-5 3 2-6 4-10z" fill="#6C362B"/>
<path transform="translate(709,1009)" d="m0 0h1l1 8v10l-1 10h-1l-1-9v-12z" fill="#6E3C32"/>
<path transform="translate(1022,1810)" d="m0 0 5 4v2h2l4 5 3-1 3-3 1 3-4 3-5-1-7-6z" fill="#704E46"/>
<path transform="translate(499,1759)" d="m0 0 3 3 4 11v3l-3 1-2-7-3-10z" fill="#5B2F27"/>
<path transform="translate(1016,1436)" d="m0 0h1l-1 8-4 13 3 1-4 1-2-1 1-7 4-8z" fill="#6C2A1E"/>
<path transform="translate(1165,963)" d="m0 0h3l-2 4-8 7-3 1 2-4 3-5h2v-2z" fill="#FBDDC3"/>
<path transform="translate(779,946)" d="m0 0 9 1 5 2v1h-23l4-3z" fill="#FEE7CC"/>
<path transform="translate(1356,1217)" d="m0 0 2 1-2 5-7 9-2-1 3-6z" fill="#F4CEB4"/>
<path transform="translate(1770,1852)" d="m0 0h1v12l-4-2-1-8z" fill="#54251D"/>
<path transform="translate(1017,1422)" d="m0 0h2l-1 14h-1v-6h-2l-2 6-2 1 3-9z" fill="#6C2A1E"/>
<path transform="translate(1875,1877)" d="m0 0 3 1 1 2v7l-4 1-1-8z" fill="#55281F"/>
<path transform="translate(525,1741)" d="m0 0h1l1 17-2 3-3-12 2-3z" fill="#52251D"/>
<path transform="translate(1216,401)" d="m0 0 2 1-3 7h-3l-11 11v-3l10-10 2-3h2z" fill="#603D35"/>
<path transform="translate(1846,1839)" d="m0 0 5 4 8 10-1 2-11-11-2-4z" fill="#704E46"/>
<path transform="translate(1416,1038)" d="m0 0 2 3 1 6h-6v-6z" fill="#FDE4C9"/>
<path transform="translate(681,597)" d="m0 0h2l1 7v9h-2l-1-2z" fill="#6B291D"/>
<path transform="translate(640,1792)" d="m0 0 3 3 2 7v8l-2-3-4-14z" fill="#5B2F26"/>
<path transform="translate(583,1836)" d="m0 0h1v16h3v2l3 1v1h-6l-1-1z" fill="#52251D"/>
<path transform="translate(1823,1795)" d="m0 0 2 1-1 3-3 3h-3l-2 5-2-4z" fill="#6C3024"/>
<path transform="translate(1063,850)" d="m0 0 2 1-8 8-8 5 2-4z" fill="#F4CAB1"/>
<path transform="translate(1e3 889)" d="m0 0 4 1-13 6-5 1v-2z" fill="#F4CEB4"/>
<path transform="translate(1081,1903)" d="m0 0 1 3-7 7-4 1 2-3h2l1-4h2v-3z" fill="#5A2F26"/>
<path transform="translate(1798,1873)" d="m0 0 5 4 7 9-1 2-7-7-4-5z" fill="#704E46"/>
<path transform="translate(312,1832)" d="m0 0h1l3 16 1 5-5-5z" fill="#D1D0D3"/>
<path transform="translate(1872,1735)" d="m0 0h1v8l-3 5-4 1v-4l5-4z" fill="#5C3129"/>
<path transform="translate(1296,1834)" d="m0 0h1l3 15-1 3-4-7 1-4z" fill="#D7CCCA"/>
<path transform="translate(1486,1767)" d="m0 0 3 1 2 5v7h-2l-1-7-3-5z" fill="#572B23"/>
<path transform="translate(1783,1752)" d="m0 0 1 3-3 4h-2l-2 4-1-3 2-4z" fill="#6C2C20"/>
<path transform="translate(714,1107)" d="m0 0h7l-1 2-10 2-4-2z" fill="#F1AA9B"/>
<path transform="translate(1151,978)" d="m0 0 1 3-7 11-2 2 1-6z" fill="#F9D5BC"/>
<path transform="translate(724,974)" d="m0 0 1 2-7 11-2 2v-5l7-9z" fill="#F9D5BC"/>
<path transform="translate(1433,571)" d="m0 0h2v3l-8 4-4-1 3-2h3l1-3z" fill="#572E26"/>
<path transform="translate(525,1887)" d="m0 0 2 2 1 11-3-2-1-9z" fill="#52251D"/>
<path transform="translate(985,1860)" d="m0 0 2 1-1 3h-16l-1-3 15 1z" fill="#704E46"/>
<path transform="translate(1834,1824)" d="m0 0 5 5 4 5h-3l-7-8z" fill="#704E46"/>
<path transform="translate(642,1823)" d="m0 0 2 2-1 7h-3l-1-6z" fill="#562921"/>
<path transform="translate(706,1789)" d="m0 0h3 1v12l-2 2z" fill="#EBBDAC"/>
<path transform="translate(1680,1755)" d="m0 0h3l5 12v2l-3-1-4-11z" fill="#5C332B"/>
<path transform="translate(1092,1565)" d="m0 0 10 1v1l-10 2-5-1 2-2z" fill="#5D433C"/>
<path transform="translate(664,843)" d="m0 0 7 3-4 3-5-1z" fill="#6B291D"/>
<path transform="translate(1765,1905)" d="m0 0 3 2-1 5-4 1-1-3z" fill="#552921"/>
<path transform="translate(1071,1520)" d="m0 0 6 2 2 5-7-2-2-3z" fill="#6C2A1E"/>
<path transform="translate(680,275)" d="m0 0 4 4-1 5-4 1z" fill="#6B372D"/>
<path transform="translate(635,1216)" d="m0 0 5 3-2 5-4-2-1-3 2-1z" fill="#F5D3B9"/>
<path transform="translate(836,1791)" d="m0 0h3v8l-4-2v-5z" fill="#562921"/>
<path transform="translate(1359,1622)" d="m0 0h1l1 6-1 1h-19v-1l17-1z" fill="#6F4840"/>
<path transform="translate(1096,1397)" d="m0 0h6v1l-9 2v2l3 1-3 1-3-2 1-3z" fill="#6C2A1E"/>
<path transform="translate(164,1767)" d="m0 0h2l-1 4-2 1-2-2zm-4 4 2 1-1 4h-2z" fill="#59271E"/>
<path transform="translate(716,1728)" d="m0 0h1v7l-4 1v-6z" fill="#52251D"/>
</svg>
